<?xml version="1.0" standalone="no"?>
<!DOCTYPE svg PUBLIC "-//W3C//DTD SVG 1.1//EN" "http://www.w3.org/Graphics/SVG/1.1/DTD/svg11.dtd" >
<svg xmlns="http://www.w3.org/2000/svg">
<metadata></metadata>
<defs>
<font id="actorregular" horiz-adv-x="1026" >
<font-face units-per-em="2048" ascent="1638" descent="-410" />
<missing-glyph horiz-adv-x="468" />
<glyph unicode="&#xfb01;" horiz-adv-x="1228" d="M45 897v133h188q0 143 40 242.5t105.5 162t148.5 90t167 27.5q178 0 389 -133l-73 -123q-166 113 -314 113q-84 0 -140 -29.5t-92 -81t-51.5 -120t-15.5 -148.5h289q78 0 170 4t225 17v-1051h-163v897h-519v-897h-163v897h-191z" />
<glyph unicode="&#xfb02;" horiz-adv-x="1228" d="M45 897v133h188q0 285 129.5 414t352.5 129q172 0 366 -62v-1511h-163v1399q-94 31 -201 31q-104 0 -168 -33t-96.5 -88.5t-44 -127t-11.5 -151.5h258v-133h-256v-897h-163v897h-191z" />
<glyph horiz-adv-x="2048" />
<glyph horiz-adv-x="2048" />
<glyph unicode="&#xd;" horiz-adv-x="468" />
<glyph unicode=" "  horiz-adv-x="468" />
<glyph unicode="&#x09;" horiz-adv-x="468" />
<glyph unicode="&#xa0;" horiz-adv-x="468" />
<glyph unicode="!" horiz-adv-x="509" d="M131 121q0 49 35 85t86 36q53 0 90 -36t37 -85q0 -51 -37 -86t-90 -35q-51 0 -86 35t-35 86zM150 1491l208 22l-34 -1140h-134z" />
<glyph unicode="&#x22;" horiz-adv-x="696" d="M123 1051v501h164v-501h-164zM410 1051v501h163v-501h-163z" />
<glyph unicode="#" horiz-adv-x="1171" d="M115 469v143h168l51 152h-184v143h233l92 264l143 -47l-75 -217h248l94 275l143 -47l-80 -228h121v-143h-170l-51 -152h141v-143h-190l-101 -291l-139 55l80 236h-248l-102 -301l-139 55l83 246h-118zM440 612h248l53 152h-247z" />
<glyph unicode="$" horiz-adv-x="1101" d="M102 39l41 166q172 -68 330 -68q80 0 146.5 9.5t115.5 31t77 58t28 94.5q0 76 -54.5 129t-134.5 98t-175 89t-175 99.5t-134 131t-54 186.5q0 135 98 230.5t268 117.5v191h144v-189q154 -6 303 -39l-21 -170q-174 47 -336 47q-152 0 -217 -45t-65 -143q0 -72 54 -124 t134 -97t175 -88t175 -98.5t134.5 -128t54.5 -175.5q0 -92 -34 -155.5t-89 -105.5t-125 -67.5t-143 -39.5v-191h-144v180q-199 0 -377 66z" />
<glyph unicode="%" horiz-adv-x="1566" d="M94 1106q0 41 12.5 99.5t47 110.5t97 89t161.5 37q94 0 153.5 -38t91 -91t43 -110.5t11.5 -96.5t-11.5 -96.5t-43 -110.5t-91 -91t-153.5 -38q-98 0 -161 37t-97.5 89t-47 110.5t-12.5 99.5zM170 4l1063 1518l131 -99l-1063 -1515zM240 1106q0 -35 8 -71t26.5 -65.5 t49 -49t77.5 -19.5q51 0 84 19.5t49.5 49t22.5 65.5t6 71t-6 70.5t-22.5 65.5t-49 49.5t-84.5 19.5q-47 0 -77.5 -19.5t-49 -49.5t-26.5 -65.5t-8 -70.5zM860 309q0 41 12.5 99.5t47 110.5t97 89t161.5 37q94 0 153.5 -38t91 -91t43 -110.5t11.5 -96.5t-11.5 -96t-43 -110.5 t-91 -91.5t-153.5 -38q-98 0 -161 37t-97.5 89.5t-47 110.5t-12.5 99zM1006 309q0 -35 8 -70.5t26.5 -65.5t49 -49.5t77.5 -19.5q51 0 84 19.5t49.5 49.5t22.5 65.5t6 70.5t-6 71t-22.5 65.5t-49 49t-84.5 19.5q-47 0 -77.5 -19.5t-49 -49t-26.5 -65.5t-8 -71z" />
<glyph unicode="&#x26;" horiz-adv-x="1431" d="M111 332q0 90 35.5 160.5t89 126t113 97.5t108.5 72q-37 45 -78 92.5t-75 99.5t-55.5 111.5t-21.5 129.5q0 57 21.5 114.5t67.5 102.5t121 73.5t184 28.5q111 0 183.5 -25.5t115.5 -68.5t60 -101.5t17 -123.5q0 -74 -30.5 -140.5t-78.5 -124t-105.5 -104.5t-110.5 -82 q98 -104 185 -191t169 -163q55 82 96 172t70 176l135 -45q-29 -96 -75 -200.5t-115 -203.5q76 -68 146.5 -130t141.5 -128l-90 -100q-72 55 -144.5 116.5t-146.5 127.5q-96 -100 -224 -164t-294 -64q-90 0 -165.5 22.5t-131 66.5t-87 112t-31.5 158zM274 326q0 -37 15.5 -75 t47.5 -67.5t79 -48t110 -18.5q123 0 224.5 50t181.5 134q-102 92 -199.5 188.5t-183.5 194.5q-51 -35 -100.5 -72t-88 -80t-62.5 -94t-24 -112zM391 1221q0 -49 12.5 -90t36 -82t60.5 -85t86 -102q49 33 93 73t79 85t55.5 94t20.5 103q0 86 -44.5 133t-168.5 47 q-115 0 -172.5 -47t-57.5 -129z" />
<glyph unicode="'" horiz-adv-x="409" d="M123 1051v501h164v-501h-164z" />
<glyph unicode="(" horiz-adv-x="686" d="M80 555q0 215 41 383t107.5 299t152.5 229.5t178 171.5l98 -94q-119 -117 -193.5 -242.5t-117.5 -252.5t-58.5 -252t-15.5 -244t15.5 -244t58.5 -253t118 -254t193 -244l-98 -95q-92 74 -178 174.5t-152.5 232.5t-107.5 301t-41 384z" />
<glyph unicode=")" horiz-adv-x="686" d="M29 -442q119 119 193.5 244.5t117.5 253.5t58.5 253t15.5 244t-15.5 244t-58.5 252t-118 252.5t-193 242.5l98 94q92 -74 178 -172t152.5 -229t107.5 -299t41 -383t-41 -384t-107.5 -301t-152.5 -232.5t-178 -174.5z" />
<glyph unicode="*" horiz-adv-x="915" d="M98 924l54 153l233 -96l-6 248h164l-8 -248l229 86l55 -154l-235 -73l151 -195l-131 -98l-147 213l-144 -217l-135 94l156 205z" />
<glyph unicode="+" horiz-adv-x="1081" d="M90 451v151h369v369h164v-369h368v-151h-368v-369h-164v369h-369z" />
<glyph unicode="," horiz-adv-x="432" d="M76 -238l69 504h174l-114 -528z" />
<glyph unicode="-" horiz-adv-x="800" d="M127 451v151h547v-151h-547z" />
<glyph unicode="." horiz-adv-x="454" d="M104 121q0 49 35 85t86 36q53 0 90 -36t37 -85q0 -51 -36.5 -86t-90.5 -35q-51 0 -86 35t-35 86z" />
<glyph unicode="/" horiz-adv-x="1044" d="M61 -371l768 2112l154 -58l-768 -2111z" />
<glyph unicode="0" horiz-adv-x="1236" d="M100 512q0 113 39 211t108.5 171t165 115t208.5 42q111 0 206 -42t163.5 -115t107.5 -171t39 -211q0 -111 -39 -209t-107.5 -172t-164 -116t-205.5 -42q-113 0 -208.5 42t-165 116t-108.5 172t-39 209zM274 512q0 -74 22.5 -142.5t68 -119.5t109 -82t147.5 -31 q82 0 145 31t107.5 82t67 119.5t22.5 142.5q0 76 -22.5 144.5t-67 119.5t-108 81t-144.5 30q-84 0 -147.5 -30t-109 -81t-68 -119.5t-22.5 -144.5z" />
<glyph unicode="1" horiz-adv-x="675" d="M43 930l365 100h100v-1030h-164v842l-268 -51z" />
<glyph unicode="2" horiz-adv-x="995" d="M88 0v78q168 133 301 260q57 53 111.5 110.5t97.5 112.5t68.5 105.5t25.5 91.5q0 66 -42 107.5t-165 41.5q-63 0 -122.5 -10t-106.5 -20q-55 -14 -106 -31l-50 131q53 20 121 37q55 14 130 25.5t159 11.5q68 0 132.5 -13.5t114.5 -45t79.5 -85t29.5 -135.5 q0 -47 -20.5 -99t-52 -104.5t-73.5 -104.5t-85 -99q-100 -111 -229 -220q49 2 102 5q47 2 107.5 3t125.5 1h156v-154h-809z" />
<glyph unicode="3" horiz-adv-x="931" d="M41 -326l51 138q39 -18 75 -31.5t69.5 -21t69.5 -11.5t77 -4q53 0 102.5 16.5t86 49t59 83t22.5 117.5q0 135 -109.5 209t-287.5 76v143q174 0 277.5 74t103.5 215q0 39 -9.5 71.5t-33 57.5t-62 38t-98.5 13q-49 0 -93 -6t-79 -12q-39 -8 -76 -17l-41 134q39 12 88 22 q41 8 98.5 15.5t125.5 7.5q160 0 257 -77t97 -245q0 -82 -26.5 -142.5t-64.5 -103.5t-82 -68.5t-81 -37.5v-6q51 -18 100.5 -49t87 -76t60 -103.5t22.5 -132.5q0 -121 -44 -199.5t-109.5 -125.5t-144 -65.5t-146.5 -18.5q-78 0 -140.5 11t-107.5 26q-53 16 -94 36z" />
<glyph unicode="4" horiz-adv-x="1175" d="M33 111l762 919h163v-887h144v-143h-144v-399h-163v399h-752zM242 135q72 2 145 4q63 2 137 3t144 1h127v215q0 111 1 197t3 145q2 70 6 123z" />
<glyph unicode="5" horiz-adv-x="1009" d="M55 -287l56 137q197 -106 340 -106q160 0 229.5 77t69.5 222q0 59 -14.5 108.5t-45.5 84t-81 54t-122 19.5q-49 0 -94 -7t-83 -17.5t-72 -24.5l-80 12l63 758h649v-143h-497l-37 -457q23 6 47.5 11t55 8.5t67.5 3.5q193 0 305.5 -102.5t112.5 -307.5q0 -133 -41 -219 t-108.5 -135t-152.5 -68.5t-173 -19.5q-201 4 -394 112z" />
<glyph unicode="6" horiz-adv-x="1075" d="M104 549q0 143 38 258t100.5 204t143.5 155.5t168 114.5t174 81t161 53l51 -145q-274 -86 -426 -206t-207 -271l72 6q33 4 74 6t88 2q80 0 159.5 -21.5t142 -69.5t102.5 -126t40 -193q0 -98 -36 -176t-97 -133t-144 -85t-176 -30q-205 0 -316.5 134.5t-111.5 441.5z M279 530q6 -215 69.5 -314t196.5 -99q49 0 97 14t86 47t60.5 85t22.5 130q0 133 -73.5 202t-221.5 69q-47 0 -89 -2.5t-140 -12.5q-10 -94 -8 -119z" />
<glyph unicode="7" horiz-adv-x="903" d="M61 -315q68 78 120 148.5t94 140t77 140t66 146.5l260 627h-596v143h801v-78l-328 -786q-37 -88 -77 -166t-85 -149.5t-97 -139t-114 -135.5z" />
<glyph unicode="8" horiz-adv-x="1126" d="M123 354q0 76 26.5 136.5t64.5 106.5t83 80t82 58q-98 53 -156.5 128t-58.5 181q0 94 37 165t95 116t130 67.5t143 22.5q90 0 165 -25.5t128 -73.5t83 -117t30 -155q0 -53 -17.5 -101t-45 -91t-63.5 -80t-73 -67q45 -25 88 -53.5t77 -68.5t54.5 -96.5t20.5 -132.5 q0 -109 -38 -181.5t-101.5 -117.5t-146.5 -63.5t-171 -18.5q-90 0 -169 19.5t-138 64.5t-94 118t-35 179zM297 354q0 -104 64.5 -170.5t199.5 -66.5t208 65.5t73 171.5q0 59 -23.5 102.5t-66.5 77t-105.5 64.5t-140.5 64q-39 -25 -75 -53.5t-66.5 -65.5t-49 -83.5 t-18.5 -105.5zM338 1044q0 -55 23.5 -95t65.5 -71.5t97.5 -57t118.5 -50.5q27 25 55.5 51.5t51 59t37 72.5t14.5 91q0 43 -11.5 84t-38 73t-71.5 51.5t-111 19.5q-57 0 -100 -20.5t-72.5 -52.5t-44 -73t-14.5 -82z" />
<glyph unicode="9" horiz-adv-x="1050" d="M82 627q0 197 121 309.5t332 114.5q100 0 179 -34t134 -105.5t85 -182.5t30 -264q0 -143 -37 -259t-99.5 -207t-143.5 -158.5t-168 -118t-175 -85t-164 -57.5l-49 148q274 92 427 224t206 271q-35 -4 -72 -8q-33 -4 -75 -6t-87 -2q-80 0 -159.5 22.5t-142 72.5 t-102.5 130t-40 195zM256 631q0 -133 73.5 -207t221.5 -74q47 0 88 2t74 6q37 4 69 11q2 10 4 26q2 14 2 36v52q-8 424 -268 424q-49 0 -97 -15t-85 -47t-59.5 -85t-22.5 -129z" />
<glyph unicode=":" horiz-adv-x="501" d="M127 121q0 49 35 85t86 36q53 0 90 -36t37 -85q0 -51 -37 -86t-90 -35q-51 0 -86 35t-35 86zM127 807q0 49 35 85t86 36q53 0 90 -36t37 -85q0 -51 -37 -86t-90 -35q-51 0 -86 35t-35 86z" />
<glyph unicode=";" horiz-adv-x="514" d="M98 -260l70 504h174l-115 -529zM152 809q0 49 34.5 85t85.5 36q53 0 90 -36t37 -85q0 -51 -36.5 -86t-90.5 -35q-51 0 -85.5 35t-34.5 86z" />
<glyph unicode="&#x3c;" horiz-adv-x="985" d="M84 594v84l764 358v-155l-531 -256l531 -277v-176z" />
<glyph unicode="=" horiz-adv-x="1183" d="M141 307v144h901v-144h-901zM141 727v143h901v-143h-901z" />
<glyph unicode="&#x3e;" horiz-adv-x="985" d="M137 172v176l531 277l-531 256v155l764 -358v-84z" />
<glyph unicode="?" horiz-adv-x="835" d="M123 1464q86 27 125 32t88 5q88 0 162.5 -26.5t130 -73.5t87.5 -115.5t32 -150.5q0 -100 -31 -166t-76 -110t-99.5 -73.5t-99.5 -53t-75.5 -49.5t-30.5 -69v-241h-164v258q0 68 30.5 107.5t72.5 65t92.5 49.5t94.5 55.5t72.5 79.5t28.5 126q0 104 -65.5 163.5 t-175.5 59.5q-31 0 -58.5 -4t-99.5 -26zM131 121q0 49 35 85t86 36q53 0 90 -36t37 -85q0 -51 -37 -86t-90 -35q-51 0 -86 35t-35 86z" />
<glyph unicode="@" horiz-adv-x="1746" d="M113 575q0 199 68.5 355.5t182 264.5t262 164t308.5 56t293 -34.5t228 -111.5t148.5 -202t53.5 -303q0 -98 -30 -191.5t-95.5 -166t-168.5 -116.5t-251 -44q-8 0 -22.5 17.5t-26.5 54t-21.5 93t-7.5 134.5h-4q-106 -137 -196.5 -213t-169.5 -76q-92 0 -135.5 67.5 t-43.5 178.5q0 121 36 222t100.5 174t153.5 113t196 40q29 0 70.5 -5.5t181.5 -27.5l-62 -410q-6 -35 -4 -71.5t8 -67.5t13.5 -50.5t13.5 -19.5q59 0 116.5 21.5t103.5 66.5t73.5 114t27.5 163q0 137 -38.5 233.5t-113.5 158t-182.5 89t-244.5 27.5q-129 0 -252 -46 t-217 -134t-151.5 -218.5t-57.5 -298.5q0 -305 148.5 -440t447.5 -135q72 0 128 9t97 20q47 12 82 28l41 -135q-51 -18 -113 -31q-53 -12 -125.5 -21t-158.5 -9q-162 0 -290 43t-217 130t-136 222t-47 319zM647 535q0 -23 3 -47.5t9.5 -46t16.5 -35t24 -13.5q10 0 38 19.5 t63 51.5t73.5 74t71.5 85t57.5 86t30.5 77l21 111q-16 4 -37 7t-44.5 5t-47.5 2q-51 0 -100.5 -22.5t-89.5 -68.5t-64.5 -117.5t-24.5 -167.5z" />
<glyph unicode="A" horiz-adv-x="1249" d="M39 0l479 1397h213l479 -1397h-178l-123 373h-567l-125 -373h-178zM395 537h459l-225 696h-6z" />
<glyph unicode="B" horiz-adv-x="1177" d="M180 0v1397h373q221 0 320.5 -82t99.5 -250q0 -78 -21.5 -135.5t-48.5 -95.5q-31 -45 -67 -78q49 -18 92 -47t75.5 -70t52 -97.5t19.5 -131.5q0 -84 -22.5 -159t-75.5 -130t-141 -88t-220 -33h-436zM352 154h279q135 0 202.5 69.5t67.5 186.5q0 51 -13.5 94t-46 74.5 t-88 50t-137.5 18.5h-264v-493zM352 791h342q29 23 51 59q20 31 37 77t17 111q0 121 -62.5 163t-175.5 42h-209v-452z" />
<glyph unicode="C" horiz-adv-x="1243" d="M104 686q0 178 49.5 314.5t135.5 228.5t204.5 139t260.5 47q86 0 160.5 -9t137 -23.5t115.5 -30.5l-37 -152q-51 16 -108 29.5t-126 23t-144 9.5q-123 0 -209 -53.5t-140.5 -136.5t-79 -185.5t-24.5 -202.5q0 -127 36 -230.5t98.5 -176t145.5 -111.5t175 -39 q86 0 157.5 9t122.5 20q59 12 107 28l35 -145q-55 -18 -123 -33q-57 -12 -133 -22.5t-166 -10.5q-162 0 -284 53.5t-203 148.5t-122 225t-41 286z" />
<glyph unicode="D" horiz-adv-x="1464" d="M180 0v1397h449q166 0 300 -41t230 -127t148.5 -217t52.5 -310q0 -180 -57.5 -312t-155.5 -219t-231.5 -129t-286.5 -42h-449zM352 158h277q113 0 212 28.5t174 93t118 169t43 253.5q0 139 -39 240.5t-110 167.5t-172 97.5t-226 31.5h-277v-1081z" />
<glyph unicode="E" horiz-adv-x="1155" d="M180 0v1397h856v-158h-684v-446h635v-154h-635v-481h705v-158h-877z" />
<glyph unicode="F" horiz-adv-x="1107" d="M180 0v1397h856v-158h-684v-446h635v-154h-635v-639h-172z" />
<glyph unicode="G" horiz-adv-x="1417" d="M104 711q0 178 55.5 310t151 219t221 131t267.5 44q92 0 178 -9t157.5 -20.5t137.5 -27.5l-29 -158q-90 18 -191.5 34.5t-234.5 20.5q-135 -2 -233.5 -40.5t-161 -111.5t-93 -173.5t-30.5 -220.5q0 -156 40 -266.5t110.5 -181.5t165 -103.5t202.5 -32.5q70 0 126 8 t98 19.5t77 25.5v375h-256v154h430v-613q-72 -47 -198 -85q-119 -36 -262 -36h-15q-139 0 -267 33t-227.5 116t-159 226.5t-59.5 362.5z" />
<glyph unicode="H" horiz-adv-x="1411" d="M180 0v1397h172v-604h707v604h172v-1397h-172v639h-707v-639h-172z" />
<glyph unicode="I" horiz-adv-x="532" d="M180 0v1397h172v-1397h-172z" />
<glyph unicode="J" horiz-adv-x="665" d="M43 119q96 16 152.5 41.5t84 62.5t35 90.5t7.5 124.5v959h172v-961q0 -121 -21.5 -206t-87.5 -136q-47 -37 -122 -70.5t-197 -50.5z" />
<glyph unicode="K" horiz-adv-x="1220" d="M180 0v1397h172v-645l586 645h215l-537 -586l619 -811h-215l-522 684l-146 -160v-524h-172z" />
<glyph unicode="L" horiz-adv-x="1021" d="M180 0v1397h172v-1233h635v-164h-807z" />
<glyph unicode="M" horiz-adv-x="1757" d="M145 0l74 1397h219l316 -832q27 -72 49 -132t39 -107q20 -53 35 -99h4q12 45 30 99q16 47 37 107.5t49 131.5l322 832h219l72 -1397h-174l-35 768q-4 100 -6 170t-2 115v86h-4q-12 -31 -31 -84q-16 -45 -42 -116t-63 -171l-288 -768h-174l-291 768q-39 98 -63.5 169 t-41.5 116q-18 53 -28 86h-5q2 -33 5 -86v-35q0 -87 -7 -250l-41 -768h-174z" />
<glyph unicode="N" horiz-adv-x="1413" d="M180 0v1397h164l733 -1108h4q-4 59 -6 127q-4 57 -5 132t-1 152v697h164v-1397h-164l-733 1112h-4q2 -61 6 -129q2 -59 4 -133t2 -152v-698h-164z" />
<glyph unicode="O" horiz-adv-x="1556" d="M104 698q0 199 62.5 336t160 221t217.5 122t234 38q115 0 235 -31.5t217 -112.5t159.5 -220.5t62.5 -354.5q0 -201 -62.5 -338t-159.5 -223t-217 -124t-235 -38t-234.5 37t-217 121t-160 223t-62.5 344zM299 709q0 -276 128 -424t343 -148q106 0 196.5 34t155 103.5 t100 172t35.5 241.5q0 276 -128 419.5t-343 143.5q-109 0 -197.5 -33.5t-153 -101t-100.5 -169t-36 -238.5z" />
<glyph unicode="P" horiz-adv-x="1105" d="M180 0v1397h322q266 0 394 -94.5t128 -317.5q0 -123 -47 -205t-118 -132t-152.5 -71.5t-151.5 -21.5h-203v-555h-172zM352 709h189q70 0 126 13t97 45t63.5 86t22.5 136t-23.5 132t-69.5 77t-116 36t-162 9h-127v-534z" />
<glyph unicode="Q" horiz-adv-x="1554" d="M104 698q0 199 61.5 336t160 221t219.5 122t239 38q117 0 236 -31.5t215 -113.5t156.5 -220.5t60.5 -353.5q0 -139 -33 -246.5t-86 -188.5t-122.5 -135t-143.5 -87q33 -18 80 -49t98 -60.5t100.5 -50t88.5 -20.5q37 0 76.5 12t74.5 35l76 -133q-47 -29 -107.5 -53.5 t-128.5 -24.5q-47 0 -108.5 23.5t-133 62.5t-151.5 90t-164 106q-27 -4 -43 -4h-41q-109 0 -228.5 33t-219.5 115t-166 222t-66 355zM299 709q0 -276 128 -424t343 -148q106 0 196.5 34t155 103.5t100 172t35.5 241.5q0 276 -128 419.5t-343 143.5q-109 0 -197.5 -33.5 t-153 -101t-100.5 -169t-36 -238.5z" />
<glyph unicode="R" horiz-adv-x="1185" d="M180 0v1397h344q113 0 206 -19.5t158.5 -65.5t100.5 -122t35 -191q-2 -127 -43 -205.5t-100.5 -127t-137.5 -70.5v-4q8 -8 25.5 -29.5t30.5 -38.5l395 -524h-203l-405 555h-234v-555h-172zM352 709h203q80 0 135 20.5t90 56t51.5 83t18.5 102.5q0 86 -21.5 140t-63.5 83 t-103.5 39t-139.5 10h-170v-534z" />
<glyph unicode="S" horiz-adv-x="1077" d="M92 39l41 166q47 -20 100 -35q47 -12 105.5 -22.5t124.5 -10.5q80 0 146.5 10.5t115.5 33t76.5 59t27.5 90.5q-2 80 -52 130t-133 96t-178 89t-175 98.5t-134.5 131t-54.5 188.5q0 66 22.5 129t77 112.5t141.5 80t216 30.5q74 0 140.5 -7t115.5 -15q57 -10 109 -23 l-29 -166q-49 12 -102 23q-47 10 -107.5 17t-126.5 7q-152 0 -217.5 -46t-65.5 -142q2 -76 55.5 -128t133.5 -96t175 -86t175 -96.5t134.5 -127t54.5 -177.5q0 -121 -52.5 -194.5t-132.5 -114.5t-175 -55.5t-181 -14.5q-82 0 -149.5 10.5t-116.5 22.5q-57 14 -105 33z" />
<glyph unicode="T" horiz-adv-x="1118" d="M35 1237v160h1048v-160h-438v-1237h-172v1237h-438z" />
<glyph unicode="U" horiz-adv-x="1466" d="M170 481v916h172v-873q0 -117 34 -191.5t89 -117.5t126 -59.5t144 -16.5q74 0 143.5 16.5t125 59.5t88 118t32.5 191v873h172v-916q0 -106 -39.5 -198.5t-113.5 -161t-178.5 -107.5t-231.5 -39q-272 0 -417.5 132.5t-145.5 373.5z" />
<glyph unicode="V" horiz-adv-x="1220" d="M37 1397h174l401 -1233h2l396 1233h174l-465 -1397h-217z" />
<glyph unicode="W" horiz-adv-x="1937" d="M57 1397h174l271 -1233h2l358 1233h217l355 -1233h2l268 1233h174l-322 -1397h-217l-368 1231h-2l-371 -1231h-217z" />
<glyph unicode="X" horiz-adv-x="1128" d="M41 0l403 711l-403 686h195l329 -568l328 568h194l-413 -703l416 -694h-199l-336 584l-319 -584h-195z" />
<glyph unicode="Y" horiz-adv-x="1116" d="M25 1397h190l342 -678l344 678h191l-447 -889v-508h-174v508z" />
<glyph unicode="Z" horiz-adv-x="1204" d="M74 0v74l790 1159h-790v164h1065v-70l-797 -1163h778v-164h-1046z" />
<glyph unicode="[" horiz-adv-x="636" d="M152 -516v2134h426v-164h-252v-1806h252v-164h-426z" />
<glyph unicode="\" horiz-adv-x="1040" d="M59 1686l154 53l768 -2112l-154 -53z" />
<glyph unicode="]" horiz-adv-x="636" d="M59 -352h252v1806h-252v164h426v-2134h-426v164z" />
<glyph unicode="^" horiz-adv-x="1363" d="M205 885l481 641l473 -641h-174l-299 420l-299 -420h-182z" />
<glyph unicode="_" horiz-adv-x="1144" d="M121 -135h903v-123h-903v123z" />
<glyph unicode="`" horiz-adv-x="868" d="M205 1454l106 125l353 -256l-70 -92z" />
<glyph unicode="a" d="M61 260q0 80 41 139.5t107.5 99.5t150.5 62.5t172 28.5q37 4 96.5 7t92.5 5q0 72 -4 128t-24.5 96t-60.5 60.5t-114 20.5q-59 0 -114.5 -7t-98.5 -15q-51 -10 -94 -23l-33 142q51 12 111 22q51 10 118.5 17.5t145.5 7.5q104 0 168.5 -31t100.5 -83t49.5 -118.5 t13.5 -140.5v-492q0 -29 1 -60.5t4 -62t7 -63.5l-158 -16l-20 112q-96 -55 -179 -89t-180 -34q-137 0 -218 66.5t-81 220.5zM236 260q0 -72 44 -107.5t115 -35.5q98 0 175 33.5t151 89.5v233q-41 -2 -78 -4t-72.5 -5t-64.5 -7q-147 -18 -208.5 -64.5t-61.5 -132.5z" />
<glyph unicode="b" horiz-adv-x="1101" d="M145 61v1473l164 18v-610q45 31 94 53q41 20 92.5 38t102.5 18q84 0 158.5 -33t131 -98.5t89.5 -166t33 -237.5q0 -152 -42 -255t-113 -166.5t-161 -92.5t-184 -29t-162.5 13.5t-114.5 29.5q-53 20 -88 45zM309 152q27 -10 57.5 -17.5t66.5 -12.5t77 -5q94 0 157.5 26.5 t100.5 77.5t52.5 124t15.5 163q0 72 -15.5 143.5t-48.5 128t-81 92t-111 35.5q-43 0 -90.5 -17.5t-88.5 -39.5q-47 -25 -92 -55v-643z" />
<glyph unicode="c" horiz-adv-x="894" d="M92 510q0 143 40 246.5t105.5 168t150.5 95.5t177 31q49 0 95.5 -5.5t80.5 -11.5q41 -8 78 -16l-33 -137q-35 8 -96 17t-125 9q-92 0 -150.5 -36.5t-91 -95t-45 -129.5t-12.5 -138q0 -104 26.5 -179t71 -122t101.5 -68.5t121 -21.5q43 0 83 5t73.5 12t64.5 18l33 -138 q-43 -12 -80 -20t-87 -14.5t-108 -6.5q-113 0 -201 29t-148 92.5t-92 165.5t-32 250z" />
<glyph unicode="d" horiz-adv-x="1103" d="M92 508q0 156 50.5 260t126 166.5t162.5 89.5t161 27q37 0 78 -5.5t121 -25.5v514l163 18v-1366q0 -29 1 -60.5t4.5 -62t7.5 -63.5l-158 -16l-16 98q-47 -33 -91.5 -54.5t-96.5 -38t-101 -16.5q-193 0 -302.5 136.5t-109.5 398.5zM266 516q0 -72 15.5 -143.5t48 -129 t80 -92t112.5 -34.5q45 0 93.5 16.5t89 38t86.5 53.5v652q-74 20 -115 25t-84 5q-86 0 -147.5 -30.5t-101.5 -85t-58.5 -125t-18.5 -150.5z" />
<glyph unicode="e" horiz-adv-x="1036" d="M90 508q0 133 37 234.5t101.5 170t151.5 103.5t189 35q100 0 174 -39t122 -105.5t72 -155.5t24 -188l-31 -90h-662q0 -63 16.5 -126.5t56.5 -115t104.5 -83t160.5 -31.5q61 0 112.5 7t89.5 16.5t71 21.5l30 -137q-47 -14 -97 -24.5t-110.5 -19t-126.5 -8.5 q-102 0 -190 29t-153.5 92.5t-103.5 164.5t-38 249zM274 604h517q0 14 -6.5 63.5t-29 102.5t-69.5 95t-125 42q-86 0 -141 -35.5t-88 -85t-45.5 -100.5t-12.5 -82z" />
<glyph unicode="f" horiz-adv-x="696" d="M45 897v133h191q0 143 19 242.5t62 162t111 90t164 27.5q78 0 145.5 -25.5t108.5 -62.5l-72 -123q-41 31 -85 49.5t-95 18.5q-68 0 -106.5 -29.5t-58 -81t-25 -120t-5.5 -148.5h256v-133h-256v-897h-163v897h-191z" />
<glyph unicode="g" horiz-adv-x="1101" d="M92 508q0 154 48 257t122 166.5t162 91.5t168 28q104 0 191 -17.5t171 -27.5v-1104q0 -76 -16 -147.5t-62.5 -128t-129 -90.5t-218.5 -34q-86 2 -149.5 10.5t-120.5 23.5t-104 36l43 143q80 -35 162.5 -53t148.5 -18q72 0 125 14t89 48t53.5 89t17.5 137v150 q-43 -29 -89.5 -52.5t-98.5 -40t-101 -16.5q-190 0 -301 134.5t-111 400.5zM266 516q0 -72 15.5 -143.5t48 -129t79.5 -92t113 -34.5q45 0 92.5 16.5t91.5 39t87 52.5v654q-25 6 -58 14q-29 4 -65.5 9t-77.5 5q-86 0 -147.5 -30.5t-101.5 -84t-58.5 -125t-18.5 -151.5z" />
<glyph unicode="h" horiz-adv-x="1118" d="M147 0v1534l164 18v-651q61 41 122 72t124.5 54.5t122.5 23.5q84 0 140.5 -19.5t91 -64.5t50 -119t15.5 -184v-664h-164v645q0 61 -2 109.5t-17.5 82t-47 52t-89.5 18.5q-53 0 -114.5 -23.5t-116.5 -54t-115 -71.5v-758h-164z" />
<glyph unicode="i" horiz-adv-x="458" d="M121 1325q0 47 31.5 79t78.5 32q49 0 83 -32t34 -79t-33.5 -79t-83.5 -32q-47 0 -78.5 32t-31.5 79zM147 0v1032l164 19v-1051h-164z" />
<glyph unicode="j" horiz-adv-x="458" d="M-51 -342q61 37 100 81t60.5 94t29.5 102.5t8 105.5v987l164 25v-1035q0 -184 -67.5 -304t-210.5 -201zM115 1325q0 47 31.5 79t78.5 32q49 0 83 -32t34 -79t-34 -79t-83 -32q-47 0 -78.5 32t-31.5 79z" />
<glyph unicode="k" d="M147 0v1534l164 18v-923l457 401h225l-446 -391l463 -639h-207l-377 535l-115 -101v-434h-164z" />
<glyph unicode="l" horiz-adv-x="458" d="M147 0v1534l164 18v-1552h-164z" />
<glyph unicode="m" horiz-adv-x="1693" d="M137 1012l154 20l22 -129q55 41 108.5 72t115 53.5t125.5 22.5q102 0 161.5 -36t87.5 -122q84 59 175.5 108.5t189.5 49.5q76 0 129 -19.5t86 -64.5t47 -119t14 -184v-664h-163v645q0 61 -2.5 109.5t-14.5 82t-39.5 52t-79.5 18.5q-47 0 -89 -13t-87 -38t-139 -100v-756 h-164v645q0 61 -2 109.5t-14.5 82t-40 52t-78.5 18.5q-53 0 -110.5 -22.5t-108.5 -53t-107 -71.5v-760h-163v844q0 70 -13 168z" />
<glyph unicode="n" horiz-adv-x="1120" d="M139 1012l152 20l22 -131q61 41 122 72t124.5 54.5t122.5 23.5q84 0 140.5 -19.5t91 -64.5t50 -119t15.5 -184v-664h-164v645q0 61 -2 109.5t-17.5 82t-47 52t-89.5 18.5q-53 0 -112.5 -23.5t-116.5 -54t-117 -71.5v-758h-163v825v13q0 49 -11 174z" />
<glyph unicode="o" horiz-adv-x="1175" d="M90 512q0 156 49 259t125 165.5t163 88.5t165 26q74 0 161 -23.5t160.5 -84t122.5 -162t49 -257.5q0 -162 -50 -268t-125.5 -168.5t-164 -88.5t-163.5 -26q-78 0 -164 25t-159 85t-121 164.5t-48 264.5zM264 510q0 -199 89 -296t241 -97q150 0 233.5 96t83.5 289 q0 205 -89 305t-242 100q-154 0 -235 -99t-81 -298z" />
<glyph unicode="p" horiz-adv-x="1105" d="M139 1012l152 20l18 -110q41 35 85 62.5t96.5 47t111.5 19.5q84 0 159 -29t131 -92.5t89 -164.5t33 -249q0 -150 -44 -253t-115 -167.5t-160 -93.5t-181 -29q-98 2 -201 25v-444l-163 -21v1260q0 74 -11 219zM313 150q23 -8 50.5 -15.5t65.5 -12.5t85 -5q86 0 147.5 30.5 t101.5 85t58.5 125t18.5 150.5q0 72 -13.5 143.5t-43 128t-79 92t-120.5 35.5q-53 0 -100.5 -19.5t-89.5 -47t-81 -62.5v-628z" />
<glyph unicode="q" horiz-adv-x="1099" d="M90 508q0 139 46 241.5t119 169t162 99.5t173 33q78 0 127 -9.5t86 -19.5t69.5 -19.5t79.5 -9.5v-1442l-161 -20v551q-59 -43 -140.5 -76t-148.5 -33q-84 0 -159 29t-131 92.5t-89 164.5t-33 249zM264 516q0 -72 15.5 -143.5t48 -129t79.5 -92t113 -34.5q45 0 92 16.5 t90 39t89 52.5v654q-18 6 -46 14q-23 4 -61.5 9t-93.5 5q-86 0 -147.5 -30.5t-101.5 -85t-58.5 -125t-18.5 -150.5z" />
<glyph unicode="r" horiz-adv-x="690" d="M139 1012l152 20l16 -149h2q37 47 72 81.5t73 60.5t72 26h13q45 0 118 -11l-36 -157q-58 10 -86 10h-9q-35 0 -73.5 -33t-67.5 -69q-37 -45 -72 -103v-688h-163v864q0 47 -11 148z" />
<glyph unicode="s" horiz-adv-x="854" d="M84 16l31 148q92 -25 167.5 -36t125.5 -11q37 0 72.5 8t64 23.5t46 40t17.5 55.5q-2 57 -39 97t-95 71.5t-124.5 63.5t-125 74t-97.5 100.5t-39 144.5q0 61 32 109t82 80t110.5 49.5t117.5 17.5q59 0 133 -9.5t170 -33.5l-28 -146q-86 27 -153 36t-122 9 q-72 0 -120 -34.5t-48 -90.5q2 -49 43 -83.5t95.5 -62.5t121 -60.5t125 -73.5t95 -98.5t38.5 -137.5q-2 -86 -37.5 -142t-92 -90t-122 -47.5t-122.5 -13.5q-74 0 -153 8.5t-169 34.5z" />
<glyph unicode="t" horiz-adv-x="745" d="M35 897v133h188v287l164 20v-307h297v-133h-297v-547q0 -68 3 -112.5t13.5 -71.5t29 -38t46.5 -11q78 2 180 57l50 -125q-68 -45 -126.5 -60.5t-115.5 -15.5q-135 0 -189.5 77t-54.5 255v592h-188z" />
<glyph unicode="u" horiz-adv-x="1077" d="M141 360v670h164v-645q0 -61 2 -110.5t14.5 -84t40 -54t78.5 -19.5q53 0 110.5 22.5t104.5 50.5q55 33 109 74v766h164v-897q2 -74 10 -133l-162 -16l-12 129h-4q-18 -14 -53 -38t-80 -46.5t-99.5 -39t-109.5 -16.5q-76 0 -129 19.5t-86 64.5t-47.5 119t-14.5 184z" />
<glyph unicode="v" horiz-adv-x="1001" d="M20 1030h181l250 -727l45 -162h2l47 162l266 727h172l-399 -1030h-185z" />
<glyph unicode="w" horiz-adv-x="1536" d="M37 1030h172l121 -465q16 -59 29.5 -125.5t25.5 -124.5q12 -68 27 -133h2q14 66 32 133q16 57 35 124t37 126l146 465h219l116 -465q14 -59 29.5 -125.5t26.5 -124.5q12 -68 24 -133h2q18 68 39 135q16 57 37 124t39 124l143 465h170l-338 -1030h-182l-147 565 q-20 78 -33.5 140.5t-24.5 105.5q-10 51 -18 90h-4q-8 -39 -21 -90q-10 -43 -28.5 -105.5t-40.5 -140.5l-174 -565h-183z" />
<glyph unicode="x" horiz-adv-x="1052" d="M27 0l391 541l-381 489h192l301 -381l285 381h184l-358 -483l393 -547h-192l-314 436l-317 -436h-184z" />
<glyph unicode="y" horiz-adv-x="1017" d="M14 1030h174l193 -465q29 -68 52.5 -135.5t41.5 -120.5q23 -63 39 -123h2q18 59 41 123q18 53 43 121t51 135l178 465h172l-487 -1229q-29 -76 -75 -131t-89 -92q-51 -43 -106 -74l-80 142q43 20 80 51q33 27 65.5 66.5t52.5 95.5l64 168z" />
<glyph unicode="z" horiz-adv-x="942" d="M49 0v63l588 840q-86 -6 -122 -7t-81 -1h-334v135h768v-72l-577 -829q74 4 98.5 5t46.5 1h430v-135h-817z" />
<glyph unicode="{" horiz-adv-x="665" d="M53 512v154q39 14 74 31.5t61.5 45t41 71.5t14.5 118q0 57 -2 103t-5.5 92.5t-5.5 98.5t-2 120q0 70 37 121t91.5 85.5t117 56t113.5 33.5l28 -143q-63 -14 -110 -39q-45 -23 -80 -59.5t-35 -89.5q0 -84 7.5 -173t7.5 -218q2 -123 -35 -212.5t-135 -119.5 q98 -29 134 -108t36 -201q0 -129 -7.5 -218.5t-7.5 -173.5q2 -55 36 -91t77 -58q49 -25 112 -39l-28 -143q-51 12 -113.5 33.5t-118 57.5t-91.5 86t-36 120q0 68 2 120t5.5 98t5.5 92t2 103q0 63 -18.5 105.5t-46 69t-61.5 43t-65 28.5z" />
<glyph unicode="|" horiz-adv-x="471" d="M154 -467v2019h163v-2019h-163z" />
<glyph unicode="}" horiz-adv-x="665" d="M49 -301q61 14 113 39q41 23 76.5 58.5t35.5 90.5q0 84 -7 173.5t-7 218.5q0 123 36 201.5t134 107.5q-94 27 -133 118t-37 214q0 129 7 218t7 173q0 53 -33.5 90t-78.5 59q-51 25 -113 39l29 143q51 -12 113.5 -33.5t116.5 -56t91 -86t37 -120.5q0 -68 -2 -120t-5 -98.5 t-5 -92.5t-2 -103q0 -74 14.5 -118t41 -71.5t60 -44t74.5 -32.5v-154q-31 -12 -65.5 -29.5t-61 -43t-45 -68t-18.5 -105.5q0 -57 2 -103t5 -92t5 -98.5t2 -119.5q0 -70 -37 -121t-91 -86t-116.5 -57.5t-113.5 -32.5z" />
<glyph unicode="~" horiz-adv-x="1140" d="M102 612q53 39 123 76t148 39q61 0 112.5 -18.5t100.5 -41t100 -40t115 -17.5q45 0 92 29t76 53l73 -114q-59 -51 -114.5 -81t-126.5 -30q-63 0 -114.5 17.5t-100.5 40t-100.5 41t-112.5 18.5q-47 -2 -89 -22.5t-112 -65.5z" />
<glyph unicode="&#xa1;" horiz-adv-x="468" d="M111 889q0 51 34.5 86t85.5 35q53 0 90 -35t37 -86q0 -49 -36.5 -85t-90.5 -36q-51 0 -85.5 36t-34.5 85zM129 -473l41 1118h133l35 -1141z" />
<glyph unicode="&#xa2;" horiz-adv-x="944" d="M102 682q0 106 30 190t79 144.5t113.5 95.5t136.5 45v240h164v-242q43 -6 85 -13t121 -28l-32 -137q-100 27 -165 35t-120 8q-84 0 -132 -34t-70.5 -84t-29 -110.5t-6.5 -111.5q0 -90 13.5 -152.5t45.5 -102.5t84 -57.5t130 -17.5q51 0 116.5 10.5t147.5 38.5l33 -137 q-45 -18 -103.5 -30.5t-117.5 -18.5v-254h-164v250q-90 6 -156.5 31.5t-112 81t-68 143.5t-22.5 217z" />
<glyph unicode="&#xa3;" horiz-adv-x="1136" d="M102 121l181 31l-35 477l-121 -13l-14 146l125 16l-19 264q-6 82 18.5 151t80 118t139.5 76.5t198 27.5q74 0 139.5 -8t112.5 -18q55 -12 103 -27l-43 -139q-45 14 -97 24q-43 10 -99 17.5t-116 7.5q-59 0 -110 -11.5t-86 -40t-53.5 -76.5t-12.5 -124l17 -227h487v-154 h-477l37 -475h581v-164h-645q-43 0 -94 -4t-176 -23z" />
<glyph unicode="&#xa4;" horiz-adv-x="1134" d="M102 39l148 176q-45 59 -69.5 136t-24.5 161q0 86 24.5 162t69.5 135l-148 176l80 68l142 -168q106 88 245 88q135 0 244 -86l139 166l80 -68l-147 -174q47 -61 72.5 -137t25.5 -162t-26.5 -162t-73.5 -137l149 -174l-80 -68l-141 166q-51 -41 -113.5 -62.5t-128.5 -21.5 q-141 0 -245 86l-142 -168zM287 512q0 -72 22.5 -132.5t61.5 -104.5t90 -68.5t108 -24.5t109.5 24.5t90.5 68.5t60.5 104.5t22.5 132.5q0 74 -22.5 134.5t-60.5 104.5t-90 68.5t-110 24.5q-57 0 -108 -24.5t-90 -68.5t-61.5 -104.5t-22.5 -134.5z" />
<glyph unicode="&#xa5;" horiz-adv-x="1259" d="M96 1397h195l338 -668l340 668h194l-364 -725h323v-144h-405v-166h405v-143h-405v-219h-174v219h-406v143h406v166h-406v144h324z" />
<glyph unicode="&#xa6;" horiz-adv-x="479" d="M168 0v627h143v-627h-143zM168 770v627h143v-627h-143z" />
<glyph unicode="&#xa7;" horiz-adv-x="1116" d="M106 -432l41 166q102 -39 183.5 -53.5t146.5 -14.5q80 0 146.5 10.5t115.5 33t77 59t28 90.5q0 76 -54.5 128t-134.5 93t-174 83t-175 94t-135 127t-54 187q0 51 17.5 97.5t46 86.5t65.5 74.5t78 63.5q-88 57 -147.5 135t-59.5 197q0 66 28.5 129t86 113.5t142.5 80 t199 29.5q74 0 161 -8t196 -33l-29 -154q-117 20 -189.5 26.5t-138.5 6.5q-152 -2 -217 -48t-65 -142q0 -72 54 -124t134 -93t175.5 -83t175 -93.5t134 -123t54.5 -173.5q0 -61 -17.5 -112.5t-45 -93.5t-63.5 -76t-75 -60q90 -55 145.5 -128t55.5 -184q0 -121 -57.5 -195.5 t-141.5 -115.5t-177 -54.5t-165 -13.5q-82 0 -179 14.5t-192 51.5zM291 571q0 -51 35.5 -94t90 -80t121 -69.5t128.5 -59.5q82 51 129 116t47 128q0 51 -35 95t-89 81t-118.5 67.5t-126.5 57.5q-86 -53 -134 -114.5t-48 -127.5z" />
<glyph unicode="&#xa8;" horiz-adv-x="987" d="M205 1325q0 47 31.5 79t78.5 32q49 0 83 -32t34 -79t-33.5 -79t-83.5 -32q-47 0 -78.5 32t-31.5 79zM555 1325q0 47 31.5 79t79.5 32q49 0 82.5 -32t33.5 -79t-33.5 -79t-82.5 -32q-47 0 -79 32t-32 79z" />
<glyph unicode="&#xa9;" horiz-adv-x="1599" d="M102 698q0 143 54.5 271.5t149.5 222.5t221 149.5t272 55.5q143 0 271 -55.5t222 -149.5t149.5 -222t55.5 -272q0 -145 -55.5 -271t-149.5 -221t-222 -149.5t-271 -54.5q-145 0 -271.5 54.5t-221.5 149.5t-149.5 221t-54.5 271zM219 698q0 -119 46 -224t125 -184 t184.5 -125t224.5 -46q121 0 226 46t184 125t124 184.5t45 223.5q0 121 -45 226.5t-124 184.5t-184 124t-226 45q-119 0 -224.5 -45t-184.5 -124t-125 -184.5t-46 -226.5zM440 702q0 115 32 194t83 127t115.5 69.5t132.5 21.5q37 0 82 -5t116 -22l-28 -120q-70 14 -104.5 17 t-65.5 3q-63 0 -104.5 -27.5t-64 -70.5t-31.5 -93.5t-9 -95.5q0 -74 19.5 -126t51 -86.5t72.5 -51t82 -16.5q33 0 74 6t94 23l25 -121q-66 -23 -116 -30t-93 -7q-78 0 -144.5 20.5t-114.5 67.5t-76 127t-28 196z" />
<glyph unicode="&#xaa;" horiz-adv-x="784" d="M80 963q0 53 29.5 93t75.5 66.5t115 44t216 25.5v82t-9 57.5t-33.5 33.5t-74.5 11q-63 0 -118.5 -8t-108.5 -20l-22 116q68 14 143.5 22.5t128.5 8.5q70 0 115 -20.5t70.5 -56.5t35.5 -81t10 -94v-332q0 -31 9 -125l-134 -10l-14 76q-70 -49 -117 -65.5t-96 -16.5 q-45 0 -86 11.5t-70.5 34t-47 59t-17.5 88.5zM219 963q0 -47 24.5 -68t71.5 -21q61 0 107.5 23t93.5 61v138q-86 -4 -188 -23q-45 -10 -77 -35.5t-32 -74.5z" />
<glyph unicode="&#xab;" horiz-adv-x="1103" d="M80 522l391 465l109 -92l-312 -373l312 -372l-109 -93zM514 522l391 465l109 -92l-312 -373l312 -372l-109 -93z" />
<glyph unicode="&#xac;" horiz-adv-x="1187" d="M141 451v151h901v-450h-151v299h-750z" />
<glyph unicode="&#xad;" horiz-adv-x="800" d="M127 451v151h547v-151h-547z" />
<glyph unicode="&#xae;" horiz-adv-x="1599" d="M102 698q0 143 54.5 271.5t149.5 222.5t221 149.5t272 55.5q143 0 271 -55.5t222 -149.5t149.5 -222t55.5 -272q0 -145 -55.5 -271t-149.5 -221t-222 -149.5t-271 -54.5q-145 0 -271.5 54.5t-221.5 149.5t-149.5 221t-54.5 271zM219 698q0 -119 46 -224t125 -184 t184.5 -125t224.5 -46q121 0 226 46t184 125t124 184.5t45 223.5q0 121 -45 226.5t-124 184.5t-184 124t-226 45q-119 0 -224.5 -45t-184.5 -124t-125 -184.5t-46 -226.5zM567 326v786h193q129 0 205.5 -54t76.5 -169q0 -72 -23.5 -116t-56 -71.5t-75.5 -37.5l-4 -9 q4 -2 8 -6t8 -10t12 -14l226 -299h-158l-229 313h-52v-313h-131zM698 764h78q70 0 98.5 28.5t30.5 79.5q0 68 -35.5 91.5t-109.5 23.5h-62v-223z" />
<glyph unicode="&#xaf;" horiz-adv-x="1241" d="M205 1212v144h831v-144h-831z" />
<glyph unicode="&#xb0;" horiz-adv-x="727" d="M88 1284q0 55 21.5 104.5t59.5 85t88 57t105 21.5t105.5 -21.5t89.5 -57t61.5 -85t22.5 -104.5t-22.5 -106.5t-61.5 -89t-89 -60t-106 -22.5q-55 0 -105 22.5t-88 60t-59.5 89t-21.5 106.5zM219 1284q0 -68 39 -112t104 -44q66 0 107 44.5t41 111.5q0 66 -41 107t-107 41 t-104.5 -41t-38.5 -107z" />
<glyph unicode="&#xb1;" horiz-adv-x="1128" d="M113 451v151h368v361h164v-361h369v-151h-369v-299h371v-152h-901v152h366v299h-368z" />
<glyph unicode="&#xb2;" horiz-adv-x="737" d="M104 645v84q98 90 177 176q33 37 64.5 77t57 79t41 74.5t15.5 64.5q0 53 -28 73.5t-99 20.5q-35 0 -68 -5t-61.5 -12t-55.5 -15l-34 108q29 12 62.5 21.5t78.5 16.5t100 7q49 0 93.5 -9t79 -32.5t55 -62.5t20.5 -99q-2 -76 -52 -155.5t-101 -138.5q-68 -80 -154 -160 q18 2 45 4q23 2 58.5 3t84.5 1h142v-121h-521z" />
<glyph unicode="&#xb3;" horiz-adv-x="661" d="M82 670l45 104q49 -23 83 -27t58 -4q145 0 146 121q0 63 -51.5 93t-163.5 30v98q109 0 158 35t49 90q0 35 -23 58.5t-88 25.5q-27 0 -50.5 -2t-68.5 -14l-37 113q55 16 93 20t75 4q51 0 95 -10t77 -31.5t51.5 -54.5t18.5 -78t-14.5 -79t-35 -58.5t-45 -39.5t-42.5 -22v-4 q59 -20 102 -65t43 -121q0 -66 -28.5 -109t-71.5 -67.5t-93.5 -34.5t-95.5 -10q-104 0 -186 39z" />
<glyph unicode="&#xb4;" horiz-adv-x="868" d="M205 1323l352 256l107 -125l-390 -223z" />
<glyph unicode="&#xb6;" horiz-adv-x="1077" d="M80 971q0 113 20.5 192.5t66.5 132t120.5 77t183.5 24.5h428v-1399q0 -92 -13.5 -158.5t-42 -122t-75.5 -103.5t-115 -99l-114 123q61 47 100 93t60.5 93t28.5 95t7 101v1233h-147v-708h-99q-104 0 -181 35.5t-128 96t-75.5 137.5t-24.5 157z" />
<glyph unicode="&#xb7;" horiz-adv-x="458" d="M109 805q0 51 34.5 86t85.5 35t86 -35t35 -86t-34.5 -86t-86.5 -35q-51 0 -85.5 35t-34.5 86z" />
<glyph unicode="&#xb8;" horiz-adv-x="677" d="M205 -403q39 43 61.5 77.5t31.5 62t11 51.5t2 42v49h162v-49q0 -37 -5 -71.5t-20.5 -73.5t-45 -84t-80.5 -101z" />
<glyph unicode="&#xb9;" horiz-adv-x="550" d="M47 1307l287 90h80v-752h-138v612l-204 -45z" />
<glyph unicode="&#xba;" horiz-adv-x="874" d="M90 1130q0 106 36 176t88 112t113.5 59.5t112.5 17.5t110.5 -16.5t112 -56.5t87 -108.5t34.5 -174.5q0 -109 -35.5 -180.5t-89 -114.5t-114 -60.5t-111.5 -17.5q-53 0 -113.5 16.5t-111.5 57.5t-85 111t-34 179zM229 1130q0 -121 55.5 -183t157.5 -62t153.5 62.5 t51.5 176.5q0 123 -55 188.5t-160 65.5q-104 0 -153.5 -64.5t-49.5 -183.5z" />
<glyph unicode="&#xbb;" horiz-adv-x="1103" d="M90 150l311 372l-311 373l109 92l391 -465l-391 -465zM524 150l311 372l-311 373l109 92l391 -465l-391 -465z" />
<glyph unicode="&#xbc;" horiz-adv-x="1705" d="M70 1307l287 90h80v-752h-138v612l-204 -45zM453 -113l606 1663l115 -41l-606 -1663zM999 170v98l400 484h137v-465h76v-117h-76v-170h-137v170h-400zM1149 283q125 4 182 4h68v112q0 115 6 203z" />
<glyph unicode="&#xbd;" horiz-adv-x="1669" d="M70 1307l287 90h80v-752h-138v612l-204 -45zM432 -113l606 1663l115 -41l-606 -1663zM1048 2v84q98 90 177 176q33 37 64.5 77t57 79t41 74.5t15.5 64.5q0 53 -28 73.5t-99 20.5q-35 0 -68 -5t-61.5 -12t-55.5 -15l-34 108q29 12 62.5 21.5t78.5 16.5t100 7q49 0 93.5 -9 t79 -32.5t55 -62.5t20.5 -99q-2 -76 -52 -155.5t-101 -138.5q-68 -80 -154 -160q18 2 45 4q23 2 58.5 3t84.5 1h142v-121h-521z" />
<glyph unicode="&#xbe;" horiz-adv-x="1771" d="M82 670l45 104q49 -23 83 -27t58 -4q145 0 146 121q0 63 -51.5 93t-163.5 30v98q109 0 158 35t49 90q0 35 -23 58.5t-88 25.5q-27 0 -50.5 -2t-68.5 -14l-37 113q55 16 93 20t75 4q51 0 95 -10t77 -31.5t51.5 -54.5t18.5 -78t-14.5 -79t-35 -58.5t-45 -39.5t-42.5 -22v-4 q59 -20 102 -65t43 -121q0 -66 -28.5 -109t-71.5 -67.5t-93.5 -34.5t-95.5 -10q-104 0 -186 39zM526 -113l606 1663l115 -41l-606 -1663zM1073 170v98l400 484h137v-465h76v-117h-76v-170h-137v170h-400zM1223 283q125 4 182 4h68v112q0 115 6 203z" />
<glyph unicode="&#xbf;" horiz-adv-x="819" d="M80 -133q0 96 28.5 162.5t78 116t144.5 95.5t128 69.5t33 56.5v262h163v-262q0 -72 -28.5 -111t-72.5 -64.5t-94 -45t-94 -49t-73 -78t-29 -132.5q0 -104 65.5 -163.5t176.5 -59.5q76 0 158 31l41 -158q-92 -37 -213 -37q-88 0 -163 27t-130.5 74t-87 114.5t-31.5 151.5z M453 889q0 51 36.5 86t90.5 35q51 0 85.5 -35t34.5 -86q0 -49 -34.5 -85t-85.5 -36q-53 0 -90 36t-37 85z" />
<glyph unicode="&#xc0;" horiz-adv-x="1249" d="M39 0l479 1397h213l479 -1397h-178l-123 373h-567l-125 -373h-178zM303 1798l106 125l353 -256l-70 -92zM395 537h459l-225 696h-6z" />
<glyph unicode="&#xc1;" horiz-adv-x="1249" d="M39 0l479 1397h213l479 -1397h-178l-123 373h-567l-125 -373h-178zM395 537h459l-225 696h-6zM420 1665l352 256l107 -125l-390 -223z" />
<glyph unicode="&#xc2;" horiz-adv-x="1249" d="M39 0l479 1397h213l479 -1397h-178l-123 373h-567l-125 -373h-178zM307 1644l276 281h82l277 -281l-82 -67l-236 198l-235 -198zM395 537h459l-225 696h-6z" />
<glyph unicode="&#xc3;" horiz-adv-x="1249" d="M39 0l479 1397h213l479 -1397h-178l-123 373h-567l-125 -373h-178zM252 1663q53 72 112.5 95.5t114.5 23.5q43 0 80 -13.5t69.5 -29t60.5 -27.5t54 -12q47 0 75 25.5t48 54.5l111 -84q-55 -70 -107.5 -99.5t-103.5 -29.5t-91 12t-74 27.5t-61.5 29t-52.5 13.5 q-41 0 -71.5 -20.5t-57.5 -55.5zM395 537h459l-225 696h-6z" />
<glyph unicode="&#xc4;" horiz-adv-x="1249" d="M39 0l479 1397h213l479 -1397h-178l-123 373h-567l-125 -373h-178zM336 1687q0 47 31.5 79t78.5 32q49 0 83 -32t34 -79t-33.5 -79t-83.5 -32q-47 0 -78.5 32t-31.5 79zM395 537h459l-225 696h-6zM686 1687q0 47 31.5 79t79.5 32q49 0 82.5 -32t33.5 -79t-33.5 -79 t-82.5 -32q-47 0 -79 32t-32 79z" />
<glyph unicode="&#xc5;" horiz-adv-x="1249" d="M39 0l479 1397h213l479 -1397h-178l-123 373h-567l-125 -373h-178zM395 537h459l-225 696h-6zM406 1693q0 47 16.5 88t46 71t68.5 47.5t86 17.5q96 0 161.5 -63.5t65.5 -160.5q0 -47 -17.5 -87t-48 -69.5t-72.5 -47t-89 -17.5t-86 17.5t-68.5 47t-46 69.5t-16.5 87z M510 1693q0 -49 34 -82.5t83 -33.5t84 33.5t35 82.5t-35 84t-84 35t-83 -35t-34 -84z" />
<glyph unicode="&#xc6;" horiz-adv-x="1773" d="M27 0l673 1397h955v-158h-684v-446h635v-154h-635v-481h704v-158h-876v393h-396l-180 -393h-196zM479 557h320v676h-8z" />
<glyph unicode="&#xc7;" horiz-adv-x="1243" d="M104 686q0 178 49.5 314.5t135.5 228.5t204.5 139t260.5 47q86 0 160.5 -9t137 -23.5t115.5 -30.5l-37 -152q-51 16 -108 29.5t-126 23t-144 9.5q-123 0 -209 -53.5t-140.5 -136.5t-79 -185.5t-24.5 -202.5q0 -127 36 -230.5t98.5 -176t145.5 -111.5t175 -39 q86 0 157.5 9t122.5 20q59 12 107 28l35 -145q-55 -18 -123 -33q-57 -12 -133 -22.5t-166 -10.5q-162 0 -284 53.5t-203 148.5t-122 225t-41 286zM563 -403q39 43 61.5 77.5t31.5 62t11 51.5t2 42v49h162v-49q0 -37 -5 -71.5t-20.5 -73.5t-45 -84t-80.5 -101z" />
<glyph unicode="&#xc8;" horiz-adv-x="1155" d="M180 0v1397h856v-158h-684v-446h635v-154h-635v-481h705v-158h-877zM352 1796l106 125l353 -256l-70 -92z" />
<glyph unicode="&#xc9;" horiz-adv-x="1155" d="M180 0v1397h856v-158h-684v-446h635v-154h-635v-481h705v-158h-877zM461 1667l352 256l107 -125l-390 -223z" />
<glyph unicode="&#xca;" horiz-adv-x="1155" d="M180 0v1397h856v-158h-684v-446h635v-154h-635v-481h705v-158h-877zM309 1642l276 281h82l277 -281l-82 -67l-236 198l-235 -198z" />
<glyph unicode="&#xcb;" horiz-adv-x="1155" d="M180 0v1397h856v-158h-684v-446h635v-154h-635v-481h705v-158h-877zM342 1663q0 47 31.5 79t78.5 32q49 0 83 -32t34 -79t-33.5 -79t-83.5 -32q-47 0 -78.5 32t-31.5 79zM692 1663q0 47 31.5 79t79.5 32q49 0 82.5 -32t33.5 -79t-33.5 -79t-82.5 -32q-47 0 -79 32t-32 79 z" />
<glyph unicode="&#xcc;" horiz-adv-x="532" d="M-27 1796l107 125l352 -256l-70 -92zM-27 1796l107 125l352 -256l-70 -92zM180 0v1397h172v-1397h-172zM180 0v1397h172v-1397h-172z" />
<glyph unicode="&#xcd;" horiz-adv-x="532" d="M109 1665l352 256l107 -125l-390 -223zM180 0v1397h172v-1397h-172z" />
<glyph unicode="&#xce;" horiz-adv-x="532" d="M-51 1642l276 281h82l277 -281l-82 -67l-236 198l-235 -198zM180 0v1397h172v-1397h-172z" />
<glyph unicode="&#xcf;" horiz-adv-x="532" d="M-22 1663q0 47 31.5 79t78.5 32q49 0 83 -32t34 -79t-33.5 -79t-83.5 -32q-47 0 -78.5 32t-31.5 79zM180 0v1397h172v-1397h-172zM328 1663q0 47 31.5 79t79.5 32q49 0 82.5 -32t33.5 -79t-33.5 -79t-82.5 -32q-47 0 -79 32t-32 79z" />
<glyph unicode="&#xd0;" horiz-adv-x="1542" d="M6 639v164h252v594h449q166 0 300 -41t230 -127t148.5 -217t52.5 -310q0 -180 -57.5 -312t-156 -219t-231.5 -129t-286 -42h-449v639h-252zM430 158h277q113 0 212 28.5t173.5 93t117.5 169t43 253.5q0 139 -38.5 240.5t-109.5 167.5t-172.5 97.5t-225.5 31.5h-277v-436 h324v-164h-324v-481z" />
<glyph unicode="&#xd1;" horiz-adv-x="1413" d="M180 0v1397h164l733 -1108h4q-4 59 -6 127q-4 57 -5 132t-1 152v697h164v-1397h-164l-733 1112h-4q2 -61 6 -129q2 -59 4 -133t2 -152v-698h-164zM344 1640q53 72 112.5 95.5t114.5 23.5q43 0 80 -13.5t69.5 -29t60.5 -27.5t54 -12q47 0 75 25.5t48 54.5l111 -84 q-55 -70 -107.5 -99.5t-103.5 -29.5t-91 12t-74 27.5t-61.5 29t-52.5 13.5q-41 0 -71.5 -20.5t-57.5 -55.5z" />
<glyph unicode="&#xd2;" horiz-adv-x="1556" d="M104 698q0 199 62.5 336t160 221t217.5 122t234 38q115 0 235 -31.5t217 -112.5t159.5 -220.5t62.5 -354.5q0 -201 -62.5 -338t-159.5 -223t-217 -124t-235 -38t-234.5 37t-217 121t-160 223t-62.5 344zM299 709q0 -276 128 -424t343 -148q106 0 196.5 34t155 103.5 t100 172t35.5 241.5q0 276 -128 419.5t-343 143.5q-109 0 -197.5 -33.5t-153 -101t-100.5 -169t-36 -238.5zM545 1796l106 125l353 -256l-70 -92z" />
<glyph unicode="&#xd3;" horiz-adv-x="1556" d="M104 698q0 199 62.5 336t160 221t217.5 122t234 38q115 0 235 -31.5t217 -112.5t159.5 -220.5t62.5 -354.5q0 -201 -62.5 -338t-159.5 -223t-217 -124t-235 -38t-234.5 37t-217 121t-160 223t-62.5 344zM299 709q0 -276 128 -424t343 -148q106 0 196.5 34t155 103.5 t100 172t35.5 241.5q0 276 -128 419.5t-343 143.5q-109 0 -197.5 -33.5t-153 -101t-100.5 -169t-36 -238.5zM555 1665l352 256l107 -125l-390 -223z" />
<glyph unicode="&#xd4;" horiz-adv-x="1556" d="M104 698q0 199 62.5 336t160 221t217.5 122t234 38q115 0 235 -31.5t217 -112.5t159.5 -220.5t62.5 -354.5q0 -201 -62.5 -338t-159.5 -223t-217 -124t-235 -38t-234.5 37t-217 121t-160 223t-62.5 344zM299 709q0 -276 128 -424t343 -148q106 0 196.5 34t155 103.5 t100 172t35.5 241.5q0 276 -128 419.5t-343 143.5q-109 0 -197.5 -33.5t-153 -101t-100.5 -169t-36 -238.5zM490 1644l276 281h82l277 -281l-82 -67l-236 198l-235 -198z" />
<glyph unicode="&#xd5;" horiz-adv-x="1556" d="M104 698q0 199 62.5 336t160 221t217.5 122t234 38q115 0 235 -31.5t217 -112.5t159.5 -220.5t62.5 -354.5q0 -201 -62.5 -338t-159.5 -223t-217 -124t-235 -38t-234.5 37t-217 121t-160 223t-62.5 344zM299 709q0 -276 128 -424t343 -148q106 0 196.5 34t155 103.5 t100 172t35.5 241.5q0 276 -128 419.5t-343 143.5q-109 0 -197.5 -33.5t-153 -101t-100.5 -169t-36 -238.5zM416 1663q53 72 112.5 95.5t114.5 23.5q43 0 80 -13.5t69.5 -29t60.5 -27.5t54 -12q47 0 75 25.5t48 54.5l111 -84q-55 -70 -107.5 -99.5t-103.5 -29.5t-91 12 t-74 27.5t-61.5 29t-52.5 13.5q-41 0 -71.5 -20.5t-57.5 -55.5z" />
<glyph unicode="&#xd6;" horiz-adv-x="1556" d="M104 698q0 199 62.5 336t160 221t217.5 122t234 38q115 0 235 -31.5t217 -112.5t159.5 -220.5t62.5 -354.5q0 -201 -62.5 -338t-159.5 -223t-217 -124t-235 -38t-234.5 37t-217 121t-160 223t-62.5 344zM299 709q0 -276 128 -424t343 -148q106 0 196.5 34t155 103.5 t100 172t35.5 241.5q0 276 -128 419.5t-343 143.5q-109 0 -197.5 -33.5t-153 -101t-100.5 -169t-36 -238.5zM506 1687q0 47 31.5 79t78.5 32q49 0 83 -32t34 -79t-33.5 -79t-83.5 -32q-47 0 -78.5 32t-31.5 79zM856 1687q0 47 31.5 79t79.5 32q49 0 82.5 -32t33.5 -79 t-33.5 -79t-82.5 -32q-47 0 -79 32t-32 79z" />
<glyph unicode="&#xd7;" horiz-adv-x="1150" d="M96 123l391 391l-391 393l86 88l393 -393l394 393l86 -88l-393 -393l393 -391l-86 -88l-394 393l-393 -393z" />
<glyph unicode="&#xd8;" horiz-adv-x="1556" d="M104 698q0 199 62.5 336t160 221t217.5 122t234 38q106 0 217 -26.5t205 -96.5l139 166l111 -92l-145 -172q68 -84 107.5 -205t39.5 -293q0 -201 -62.5 -338t-159.5 -223t-217 -124t-235 -38q-100 0 -203.5 27t-195.5 90l-162 -194l-111 92l164 196q-76 86 -121 212 t-45 302zM299 709q0 -233 94 -379l690 823q-121 98 -297 98q-109 0 -197.5 -33.5t-153 -101t-100.5 -169t-36 -238.5zM492 223q111 -86 278 -86q106 0 196.5 34t155 103.5t100 172t35.5 241.5q0 109 -20 197t-59 155z" />
<glyph unicode="&#xd9;" horiz-adv-x="1466" d="M170 481v916h172v-873q0 -117 34 -191.5t89 -117.5t126 -59.5t144 -16.5q74 0 143.5 16.5t125 59.5t88 118t32.5 191v873h172v-916q0 -106 -39.5 -198.5t-113.5 -161t-178.5 -107.5t-231.5 -39q-272 0 -417.5 132.5t-145.5 373.5zM481 1796l106 125l353 -256l-70 -92z " />
<glyph unicode="&#xda;" horiz-adv-x="1466" d="M170 481v916h172v-873q0 -117 34 -191.5t89 -117.5t126 -59.5t144 -16.5q74 0 143.5 16.5t125 59.5t88 118t32.5 191v873h172v-916q0 -106 -39.5 -198.5t-113.5 -161t-178.5 -107.5t-231.5 -39q-272 0 -417.5 132.5t-145.5 373.5zM631 1665l352 256l107 -125l-390 -223z " />
<glyph unicode="&#xdb;" horiz-adv-x="1466" d="M170 481v916h172v-873q0 -117 34 -191.5t89 -117.5t126 -59.5t144 -16.5q74 0 143.5 16.5t125 59.5t88 118t32.5 191v873h172v-916q0 -106 -39.5 -198.5t-113.5 -161t-178.5 -107.5t-231.5 -39q-272 0 -417.5 132.5t-145.5 373.5zM436 1646l276 281h82l277 -281l-82 -67 l-236 198l-235 -198z" />
<glyph unicode="&#xdc;" horiz-adv-x="1466" d="M170 481v916h172v-873q0 -117 34 -191.5t89 -117.5t126 -59.5t144 -16.5q74 0 143.5 16.5t125 59.5t88 118t32.5 191v873h172v-916q0 -106 -39.5 -198.5t-113.5 -161t-178.5 -107.5t-231.5 -39q-272 0 -417.5 132.5t-145.5 373.5zM434 1687q0 47 31.5 79t78.5 32 q49 0 83 -32t34 -79t-33.5 -79t-83.5 -32q-47 0 -78.5 32t-31.5 79zM784 1687q0 47 31.5 79t79.5 32q49 0 82.5 -32t33.5 -79t-33.5 -79t-82.5 -32q-47 0 -79 32t-32 79z" />
<glyph unicode="&#xdd;" horiz-adv-x="1116" d="M25 1397h190l342 -678l344 678h191l-447 -889v-508h-174v508zM359 1665l352 256l107 -125l-390 -223z" />
<glyph unicode="&#xde;" horiz-adv-x="1114" d="M180 0v1397h172v-244h170q266 0 394 -94t128 -318q0 -123 -47 -204.5t-117.5 -132t-152.5 -72t-152 -21.5h-223v-311h-172zM352 465h209q70 0 126 13.5t97 45t63.5 86t22.5 135.5q0 82 -23.5 132.5t-69.5 77t-115.5 35.5t-161.5 9h-148v-534z" />
<glyph unicode="&#xdf;" horiz-adv-x="1226" d="M147 0v905q0 162 19.5 284t71 204t139.5 121.5t225 39.5q72 0 145.5 -17t133 -59t97.5 -108.5t38 -165.5q0 -90 -25.5 -147.5t-65.5 -93t-86 -58t-85 -41t-65.5 -42t-26.5 -62.5q0 -33 37.5 -61.5t96 -58.5t124 -63.5t123 -77.5t95.5 -100.5t38 -132.5q0 -86 -37 -142 t-95.5 -90t-127 -47.5t-134.5 -13.5q-59 0 -140 10.5t-165 34.5l33 150q94 -31 157.5 -40t116.5 -9q37 0 76 6t70 21.5t51 43t20 70.5q-2 47 -38.5 83t-94 67.5t-123 64.5t-124 74t-96.5 92t-38 123q0 63 29 102t71 65.5t91 46t92 45.5t70.5 63.5t27.5 99.5q0 63 -27.5 106 t-69.5 67.5t-91 35t-92 10.5q-100 0 -156.5 -39t-82 -110.5t-32 -177t-6.5 -236.5v-842h-164z" />
<glyph unicode="&#xe0;" d="M61 260q0 80 41 139.5t107.5 99.5t150.5 62.5t172 28.5q37 4 96.5 7t92.5 5q0 72 -4 128t-24.5 96t-60.5 60.5t-114 20.5q-59 0 -114.5 -7t-98.5 -15q-51 -10 -94 -23l-33 142q51 12 111 22q51 10 118.5 17.5t145.5 7.5q104 0 168.5 -31t100.5 -83t49.5 -118.5 t13.5 -140.5v-492q0 -29 1 -60.5t4 -62t7 -63.5l-158 -16l-20 112q-96 -55 -179 -89t-180 -34q-137 0 -218 66.5t-81 220.5zM236 260q0 -72 44 -107.5t115 -35.5q98 0 175 33.5t151 89.5v233q-41 -2 -78 -4t-72.5 -5t-64.5 -7q-147 -18 -208.5 -64.5t-61.5 -132.5zM264 1454 l106 125l353 -256l-70 -92z" />
<glyph unicode="&#xe1;" d="M61 260q0 80 41 139.5t107.5 99.5t150.5 62.5t172 28.5q37 4 96.5 7t92.5 5q0 72 -4 128t-24.5 96t-60.5 60.5t-114 20.5q-59 0 -114.5 -7t-98.5 -15q-51 -10 -94 -23l-33 142q51 12 111 22q51 10 118.5 17.5t145.5 7.5q104 0 168.5 -31t100.5 -83t49.5 -118.5 t13.5 -140.5v-492q0 -29 1 -60.5t4 -62t7 -63.5l-158 -16l-20 112q-96 -55 -179 -89t-180 -34q-137 0 -218 66.5t-81 220.5zM236 260q0 -72 44 -107.5t115 -35.5q98 0 175 33.5t151 89.5v233q-41 -2 -78 -4t-72.5 -5t-64.5 -7q-147 -18 -208.5 -64.5t-61.5 -132.5zM301 1323 l352 256l107 -125l-390 -223z" />
<glyph unicode="&#xe2;" d="M61 260q0 80 41 139.5t107.5 99.5t150.5 62.5t172 28.5q37 4 96.5 7t92.5 5q0 72 -4 128t-24.5 96t-60.5 60.5t-114 20.5q-59 0 -114.5 -7t-98.5 -15q-51 -10 -94 -23l-33 142q51 12 111 22q51 10 118.5 17.5t145.5 7.5q104 0 168.5 -31t100.5 -83t49.5 -118.5 t13.5 -140.5v-492q0 -29 1 -60.5t4 -62t7 -63.5l-158 -16l-20 112q-96 -55 -179 -89t-180 -34q-137 0 -218 66.5t-81 220.5zM205 1296l276 281h82l277 -281l-82 -67l-236 198l-235 -198zM236 260q0 -72 44 -107.5t115 -35.5q98 0 175 33.5t151 89.5v233q-41 -2 -78 -4 t-72.5 -5t-64.5 -7q-147 -18 -208.5 -64.5t-61.5 -132.5z" />
<glyph unicode="&#xe3;" d="M61 260q0 80 41 139.5t107.5 99.5t150.5 62.5t172 28.5q37 4 96.5 7t92.5 5q0 72 -4 128t-24.5 96t-60.5 60.5t-114 20.5q-59 0 -114.5 -7t-98.5 -15q-51 -10 -94 -23l-33 142q51 12 111 22q51 10 118.5 17.5t145.5 7.5q104 0 168.5 -31t100.5 -83t49.5 -118.5 t13.5 -140.5v-492q0 -29 1 -60.5t4 -62t7 -63.5l-158 -16l-20 112q-96 -55 -179 -89t-180 -34q-137 0 -218 66.5t-81 220.5zM160 1325q53 72 112.5 95.5t114.5 23.5q43 0 80 -13.5t69.5 -29t60.5 -27.5t54 -12q47 0 75 25.5t48 54.5l111 -84q-55 -70 -107.5 -99.5 t-103.5 -29.5t-91 12t-74 27.5t-61.5 29t-52.5 13.5q-41 0 -71.5 -20.5t-57.5 -55.5zM236 260q0 -72 44 -107.5t115 -35.5q98 0 175 33.5t151 89.5v233q-41 -2 -78 -4t-72.5 -5t-64.5 -7q-147 -18 -208.5 -64.5t-61.5 -132.5z" />
<glyph unicode="&#xe4;" d="M61 260q0 80 41 139.5t107.5 99.5t150.5 62.5t172 28.5q37 4 96.5 7t92.5 5q0 72 -4 128t-24.5 96t-60.5 60.5t-114 20.5q-59 0 -114.5 -7t-98.5 -15q-51 -10 -94 -23l-33 142q51 12 111 22q51 10 118.5 17.5t145.5 7.5q104 0 168.5 -31t100.5 -83t49.5 -118.5 t13.5 -140.5v-492q0 -29 1 -60.5t4 -62t7 -63.5l-158 -16l-20 112q-96 -55 -179 -89t-180 -34q-137 0 -218 66.5t-81 220.5zM236 260q0 -72 44 -107.5t115 -35.5q98 0 175 33.5t151 89.5v233q-41 -2 -78 -4t-72.5 -5t-64.5 -7q-147 -18 -208.5 -64.5t-61.5 -132.5zM236 1325 q0 47 31.5 79t78.5 32q49 0 83 -32t34 -79t-33.5 -79t-83.5 -32q-47 0 -78.5 32t-31.5 79zM586 1325q0 47 31.5 79t79.5 32q49 0 82.5 -32t33.5 -79t-33.5 -79t-82.5 -32q-47 0 -79 32t-32 79z" />
<glyph unicode="&#xe5;" d="M61 260q0 80 41 139.5t107.5 99.5t150.5 62.5t172 28.5q37 4 96.5 7t92.5 5q0 72 -4 128t-24.5 96t-60.5 60.5t-114 20.5q-59 0 -114.5 -7t-98.5 -15q-51 -10 -94 -23l-33 142q51 12 111 22q51 10 118.5 17.5t145.5 7.5q104 0 168.5 -31t100.5 -83t49.5 -118.5 t13.5 -140.5v-492q0 -29 1 -60.5t4 -62t7 -63.5l-158 -16l-20 112q-96 -55 -179 -89t-180 -34q-137 0 -218 66.5t-81 220.5zM236 260q0 -72 44 -107.5t115 -35.5q98 0 175 33.5t151 89.5v233q-41 -2 -78 -4t-72.5 -5t-64.5 -7q-147 -18 -208.5 -64.5t-61.5 -132.5zM314 1413 q0 47 16.5 88t46 71t68.5 47.5t86 17.5q96 0 161.5 -63.5t65.5 -160.5q0 -47 -17.5 -87t-48 -69.5t-72.5 -47t-89 -17.5t-86 17.5t-68.5 47t-46 69.5t-16.5 87zM418 1413q0 -49 34 -82.5t83 -33.5t84 33.5t35 82.5t-35 84t-84 35t-83 -35t-34 -84z" />
<glyph unicode="&#xe6;" horiz-adv-x="1650" d="M61 260q0 82 37 141.5t99.5 99.5t143.5 61.5t169 27.5q31 2 68.5 5t132.5 11l8 56q18 121 -27 183t-174 62q-141 0 -305 -39l-35 146q188 37 375 37q117 -2 184.5 -40t100.5 -100q129 139 356 140q100 0 172 -39t118 -105.5t68.5 -155.5t22.5 -188l-31 -90h-663 q0 -68 19.5 -132.5t60 -114.5t105 -79.5t155.5 -29.5q154 0 272 45l31 -133q-164 -55 -334 -56q-111 0 -203 35t-174 133q-55 -47 -125 -84q-59 -33 -142.5 -58.5t-185.5 -25.5q-154 0 -226.5 73t-72.5 214zM233 260q0 -72 45.5 -107.5t116.5 -35.5q98 0 187 39t163 94 q-12 35 -20 72.5t-12 72.5q-6 39 -8 78q-111 -6 -199 -16q-147 -18 -210 -64.5t-63 -132.5zM889 604h516q0 14 -6 63.5t-28.5 102.5t-69 95t-125.5 42q-86 0 -141.5 -34.5t-87.5 -85t-45 -101.5t-13 -82z" />
<glyph unicode="&#xe7;" horiz-adv-x="894" d="M92 510q0 143 40 246.5t105.5 168t150.5 95.5t177 31q49 0 95.5 -5.5t80.5 -11.5q41 -8 78 -16l-33 -137q-35 8 -96 17t-125 9q-92 0 -150.5 -36.5t-91 -95t-45 -129.5t-12.5 -138q0 -104 26.5 -179t71 -122t101.5 -68.5t121 -21.5q43 0 83 5t73.5 12t64.5 18l33 -138 q-43 -12 -80 -20t-87 -14.5t-108 -6.5q-113 0 -201 29t-148 92.5t-92 165.5t-32 250zM340 -403q39 43 61.5 77.5t31.5 62t11 51.5t2 42v49h162v-49q0 -37 -5 -71.5t-20.5 -73.5t-45 -84t-80.5 -101z" />
<glyph unicode="&#xe8;" horiz-adv-x="1036" d="M90 508q0 133 37 234.5t101.5 170t151.5 103.5t189 35q100 0 174 -39t122 -105.5t72 -155.5t24 -188l-31 -90h-662q0 -63 16.5 -126.5t56.5 -115t104.5 -83t160.5 -31.5q61 0 112.5 7t89.5 16.5t71 21.5l30 -137q-47 -14 -97 -24.5t-110.5 -19t-126.5 -8.5 q-102 0 -190 29t-153.5 92.5t-103.5 164.5t-38 249zM274 604h517q0 14 -6.5 63.5t-29 102.5t-69.5 95t-125 42q-86 0 -141 -35.5t-88 -85t-45.5 -100.5t-12.5 -82zM289 1454l106 125l353 -256l-70 -92z" />
<glyph unicode="&#xe9;" horiz-adv-x="1036" d="M90 508q0 133 37 234.5t101.5 170t151.5 103.5t189 35q100 0 174 -39t122 -105.5t72 -155.5t24 -188l-31 -90h-662q0 -63 16.5 -126.5t56.5 -115t104.5 -83t160.5 -31.5q61 0 112.5 7t89.5 16.5t71 21.5l30 -137q-47 -14 -97 -24.5t-110.5 -19t-126.5 -8.5 q-102 0 -190 29t-153.5 92.5t-103.5 164.5t-38 249zM274 604h517q0 14 -6.5 63.5t-29 102.5t-69.5 95t-125 42q-86 0 -141 -35.5t-88 -85t-45.5 -100.5t-12.5 -82zM338 1323l352 256l107 -125l-390 -223z" />
<glyph unicode="&#xea;" horiz-adv-x="1036" d="M90 508q0 133 37 234.5t101.5 170t151.5 103.5t189 35q100 0 174 -39t122 -105.5t72 -155.5t24 -188l-31 -90h-662q0 -63 16.5 -126.5t56.5 -115t104.5 -83t160.5 -31.5q61 0 112.5 7t89.5 16.5t71 21.5l30 -137q-47 -14 -97 -24.5t-110.5 -19t-126.5 -8.5 q-102 0 -190 29t-153.5 92.5t-103.5 164.5t-38 249zM238 1296l276 281h82l277 -281l-82 -67l-236 198l-235 -198zM274 604h517q0 14 -6.5 63.5t-29 102.5t-69.5 95t-125 42q-86 0 -141 -35.5t-88 -85t-45.5 -100.5t-12.5 -82z" />
<glyph unicode="&#xeb;" horiz-adv-x="1036" d="M90 508q0 133 37 234.5t101.5 170t151.5 103.5t189 35q100 0 174 -39t122 -105.5t72 -155.5t24 -188l-31 -90h-662q0 -63 16.5 -126.5t56.5 -115t104.5 -83t160.5 -31.5q61 0 112.5 7t89.5 16.5t71 21.5l30 -137q-47 -14 -97 -24.5t-110.5 -19t-126.5 -8.5 q-102 0 -190 29t-153.5 92.5t-103.5 164.5t-38 249zM258 1325q0 47 31.5 79t78.5 32q49 0 83 -32t34 -79t-33.5 -79t-83.5 -32q-47 0 -78.5 32t-31.5 79zM274 604h517q0 14 -6.5 63.5t-29 102.5t-69.5 95t-125 42q-86 0 -141 -35.5t-88 -85t-45.5 -100.5t-12.5 -82z M608 1325q0 47 31.5 79t79.5 32q49 0 82.5 -32t33.5 -79t-33.5 -79t-82.5 -32q-47 0 -79 32t-32 79z" />
<glyph unicode="&#xec;" horiz-adv-x="458" d="M-82 1454l106 125l353 -256l-70 -92zM147 0v1032l164 19v-1051h-164z" />
<glyph unicode="&#xed;" horiz-adv-x="458" d="M82 1323l352 256l107 -125l-390 -223zM147 0v1032l164 19v-1051h-164z" />
<glyph unicode="&#xee;" horiz-adv-x="458" d="M-88 1296l276 281h82l277 -281l-82 -67l-236 198l-235 -198zM147 0v1032l164 19v-1051h-164z" />
<glyph unicode="&#xef;" horiz-adv-x="458" d="M-59 1325q0 47 31.5 79t78.5 32q49 0 83 -32t34 -79t-33.5 -79t-83.5 -32q-47 0 -78.5 32t-31.5 79zM147 0v1032l164 19v-1051h-164zM291 1325q0 47 31.5 79t79.5 32q49 0 82.5 -32t33.5 -79t-33.5 -79t-82.5 -32q-47 0 -79 32t-32 79z" />
<glyph unicode="&#xf0;" horiz-adv-x="1050" d="M66 387q0 115 45 195t111.5 130t144 72.5t143.5 22.5q45 0 88 -5t78 -9q39 -8 76 -15q-23 72 -56.5 134.5t-77.5 121.5l-165 -129l-78 99l166 126q-37 43 -78 86.5t-84 88.5l119 110q47 -51 89 -97t81 -91l182 137l74 -96l-179 -138q92 -123 146.5 -259t54.5 -322 q0 -143 -31.5 -251t-90 -180.5t-140.5 -108.5t-182 -36q-113 0 -195 30t-136 84t-79.5 131t-25.5 169zM240 383q0 -78 22.5 -128t59 -81t85 -43t97.5 -12q133 0 197.5 98t70.5 313q2 49 -6 111q-129 23 -231 23q-147 0 -221 -74t-74 -207z" />
<glyph unicode="&#xf1;" horiz-adv-x="1120" d="M139 1012l152 20l22 -131q61 41 122 72t124.5 54.5t122.5 23.5q84 0 140.5 -19.5t91 -64.5t50 -119t15.5 -184v-664h-164v645q0 61 -2 109.5t-17.5 82t-47 52t-89.5 18.5q-53 0 -112.5 -23.5t-116.5 -54t-117 -71.5v-758h-163v825q2 43 -11 187zM215 1307 q53 72 112.5 95.5t114.5 23.5q43 0 80 -13.5t69.5 -29t60.5 -27.5t54 -12q47 0 75 25.5t48 54.5l111 -84q-55 -70 -107.5 -99.5t-103.5 -29.5t-91 12t-74 27.5t-61.5 29t-52.5 13.5q-41 0 -71.5 -20.5t-57.5 -55.5z" />
<glyph unicode="&#xf2;" horiz-adv-x="1175" d="M90 512q0 156 49 259t125 165.5t163 88.5t165 26q74 0 161 -23.5t160.5 -84t122.5 -162t49 -257.5q0 -162 -50 -268t-125.5 -168.5t-164 -88.5t-163.5 -26q-78 0 -164 25t-159 85t-121 164.5t-48 264.5zM264 510q0 -199 89 -296t241 -97q150 0 233.5 96t83.5 289 q0 205 -89 305t-242 100q-154 0 -235 -99t-81 -298zM318 1454l106 125l353 -256l-70 -92z" />
<glyph unicode="&#xf3;" horiz-adv-x="1175" d="M90 512q0 156 49 259t125 165.5t163 88.5t165 26q74 0 161 -23.5t160.5 -84t122.5 -162t49 -257.5q0 -162 -50 -268t-125.5 -168.5t-164 -88.5t-163.5 -26q-78 0 -164 25t-159 85t-121 164.5t-48 264.5zM264 510q0 -199 89 -296t241 -97q150 0 233.5 96t83.5 289 q0 205 -89 305t-242 100q-154 0 -235 -99t-81 -298zM371 1323l352 256l107 -125l-390 -223z" />
<glyph unicode="&#xf4;" horiz-adv-x="1175" d="M90 512q0 156 49 259t125 165.5t163 88.5t165 26q74 0 161 -23.5t160.5 -84t122.5 -162t49 -257.5q0 -162 -50 -268t-125.5 -168.5t-164 -88.5t-163.5 -26q-78 0 -164 25t-159 85t-121 164.5t-48 264.5zM264 510q0 -199 89 -296t241 -97q150 0 233.5 96t83.5 289 q0 205 -89 305t-242 100q-154 0 -235 -99t-81 -298zM277 1296l276 281h82l277 -281l-82 -67l-236 198l-235 -198z" />
<glyph unicode="&#xf5;" horiz-adv-x="1175" d="M90 512q0 156 49 259t125 165.5t163 88.5t165 26q74 0 161 -23.5t160.5 -84t122.5 -162t49 -257.5q0 -162 -50 -268t-125.5 -168.5t-164 -88.5t-163.5 -26q-78 0 -164 25t-159 85t-121 164.5t-48 264.5zM232 1325q53 72 112.5 95.5t114.5 23.5q43 0 80 -13.5t69.5 -29 t60.5 -27.5t54 -12q47 0 75 25.5t48 54.5l111 -84q-55 -70 -107.5 -99.5t-103.5 -29.5t-91 12t-74 27.5t-61.5 29t-52.5 13.5q-41 0 -71.5 -20.5t-57.5 -55.5zM264 510q0 -199 89 -296t241 -97q150 0 233.5 96t83.5 289q0 205 -89 305t-242 100q-154 0 -235 -99t-81 -298z " />
<glyph unicode="&#xf6;" horiz-adv-x="1175" d="M90 512q0 156 49 259t125 165.5t163 88.5t165 26q74 0 161 -23.5t160.5 -84t122.5 -162t49 -257.5q0 -162 -50 -268t-125.5 -168.5t-164 -88.5t-163.5 -26q-78 0 -164 25t-159 85t-121 164.5t-48 264.5zM264 510q0 -199 89 -296t241 -97q150 0 233.5 96t83.5 289 q0 205 -89 305t-242 100q-154 0 -235 -99t-81 -298zM311 1325q0 47 31.5 79t78.5 32q49 0 83 -32t34 -79t-33.5 -79t-83.5 -32q-47 0 -78.5 32t-31.5 79zM661 1325q0 47 31.5 79t79.5 32q49 0 82.5 -32t33.5 -79t-33.5 -79t-82.5 -32q-47 0 -79 32t-32 79z" />
<glyph unicode="&#xf7;" horiz-adv-x="1130" d="M115 498v164h901v-164h-901zM444 227q0 53 35 88t86 35q53 0 87 -34.5t34 -88.5q0 -51 -34 -84.5t-87 -33.5q-51 0 -86 33.5t-35 84.5zM444 928q0 53 35 88t86 35q53 0 87 -35t34 -88q0 -51 -34 -85t-87 -34q-51 0 -86 34t-35 85z" />
<glyph unicode="&#xf8;" horiz-adv-x="1175" d="M90 512q0 156 49 259t125 165.5t163 88.5t165 26q72 0 152.5 -20.5t152.5 -74.5l109 129l94 -77l-115 -138q45 -59 72.5 -144t27.5 -202q0 -162 -50 -268t-125.5 -168.5t-164 -88.5t-163.5 -26q-68 0 -142.5 17.5t-140.5 60.5l-100 -119l-95 78l103 123q-53 61 -85 154.5 t-32 224.5zM264 510q0 -152 53 -246l478 570q-84 74 -215 73q-154 0 -235 -99t-81 -298zM399 172q39 -29 88.5 -42t106.5 -13q150 0 233.5 96t83.5 289q0 70 -11 126t-32 103z" />
<glyph unicode="&#xf9;" horiz-adv-x="1077" d="M141 360v670h164v-645q0 -61 2 -110.5t14.5 -84t40 -54t78.5 -19.5q53 0 110.5 22.5t104.5 50.5q55 33 109 74v766h164v-897q2 -74 10 -133l-162 -16l-12 129h-4q-18 -14 -53 -38t-80 -46.5t-99.5 -39t-109.5 -16.5q-76 0 -129 19.5t-86 64.5t-47.5 119t-14.5 184z M281 1454l106 125l353 -256l-70 -92z" />
<glyph unicode="&#xfa;" horiz-adv-x="1077" d="M141 360v670h164v-645q0 -61 2 -110.5t14.5 -84t40 -54t78.5 -19.5q53 0 110.5 22.5t104.5 50.5q55 33 109 74v766h164v-897q2 -74 10 -133l-162 -16l-12 129h-4q-18 -14 -53 -38t-80 -46.5t-99.5 -39t-109.5 -16.5q-76 0 -129 19.5t-86 64.5t-47.5 119t-14.5 184z M324 1323l352 256l107 -125l-390 -223z" />
<glyph unicode="&#xfb;" horiz-adv-x="1077" d="M141 360v670h164v-645q0 -61 2 -110.5t14.5 -84t40 -54t78.5 -19.5q53 0 110.5 22.5t104.5 50.5q55 33 109 74v766h164v-897q2 -74 10 -133l-162 -16l-12 129h-4q-18 -14 -53 -38t-80 -46.5t-99.5 -39t-109.5 -16.5q-76 0 -129 19.5t-86 64.5t-47.5 119t-14.5 184z M221 1296l276 281h82l277 -281l-82 -67l-236 198l-235 -198z" />
<glyph unicode="&#xfc;" horiz-adv-x="1077" d="M141 360v670h164v-645q0 -61 2 -110.5t14.5 -84t40 -54t78.5 -19.5q53 0 110.5 22.5t104.5 50.5q55 33 109 74v766h164v-897q2 -74 10 -133l-162 -16l-12 129h-4q-18 -14 -53 -38t-80 -46.5t-99.5 -39t-109.5 -16.5q-76 0 -129 19.5t-86 64.5t-47.5 119t-14.5 184z M252 1325q0 47 31.5 79t78.5 32q49 0 83 -32t34 -79t-33.5 -79t-83.5 -32q-47 0 -78.5 32t-31.5 79zM602 1325q0 47 31.5 79t79.5 32q49 0 82.5 -32t33.5 -79t-33.5 -79t-82.5 -32q-47 0 -79 32t-32 79z" />
<glyph unicode="&#xfd;" horiz-adv-x="1017" d="M14 1030h174l193 -465q29 -68 52.5 -135.5t41.5 -120.5q23 -63 39 -123h2q18 59 41 123q18 53 43 121t51 135l178 465h172l-487 -1229q-29 -76 -75 -131t-89 -92q-51 -43 -106 -74l-80 142q43 20 80 51q33 27 65.5 66.5t52.5 95.5l64 168zM264 1339l352 256l107 -125 l-390 -223z" />
<glyph unicode="&#xfe;" horiz-adv-x="1103" d="M147 -467v2001l164 18v-610q80 53 159 81t130 28q84 0 159 -33t131 -98.5t89 -166t33 -237.5q0 -152 -42 -255t-113 -166.5t-161 -92.5t-184 -29q-106 0 -201 23v-463h-164zM311 152q106 -35 201 -35q94 0 157.5 26.5t100.5 77.5t52.5 124t15.5 163q0 72 -15.5 143.5 t-48.5 128t-81 92t-111 35.5q-43 0 -108.5 -24.5t-162.5 -87.5v-643z" />
<glyph unicode="&#xff;" horiz-adv-x="1017" d="M14 1030h174l193 -465q29 -68 52.5 -135.5t41.5 -120.5q23 -63 39 -123h2q18 59 41 123q18 53 43 121t51 135l178 465h172l-487 -1229q-29 -76 -75 -131t-89 -92q-51 -43 -106 -74l-80 142q43 20 80 51q33 27 65.5 66.5t52.5 95.5l64 168zM221 1345q0 47 31.5 79t78.5 32 q49 0 83 -32t34 -79t-33.5 -79t-83.5 -32q-47 0 -78.5 32t-31.5 79zM571 1345q0 47 31.5 79t79.5 32q49 0 82.5 -32t33.5 -79t-33.5 -79t-82.5 -32q-47 0 -79 32t-32 79z" />
<glyph unicode="&#x152;" horiz-adv-x="1863" d="M104 702q0 178 52.5 309.5t148.5 217.5t230.5 127t300.5 41h909v-158h-684v-446h635v-154h-635v-481h704v-158h-929q-154 0 -287 42t-231.5 129t-156 219t-57.5 312zM289 702q0 -150 43 -254t117.5 -168.5t174 -93t212.5 -28.5h53v1081h-53q-125 0 -226.5 -31.5 t-172 -97.5t-109.5 -167t-39 -241z" />
<glyph unicode="&#x153;" horiz-adv-x="1839" d="M90 516q0 147 46 248.5t118 165t158 92.5t168 29q49 0 103 -8.5t108.5 -30t104.5 -58t91 -96.5q119 193 395 193q100 0 172 -39t118 -105.5t68.5 -155.5t22.5 -188l-30 -90h-662v-45q6 -59 25.5 -114.5t59.5 -99.5t102.5 -70.5t150.5 -26.5q147 0 272 45l31 -133 q-170 -55 -334 -56q-129 0 -231.5 47.5t-163.5 149.5q-39 -55 -89 -93t-103.5 -61.5t-107.5 -33t-103 -9.5q-76 0 -162 22.5t-159 83t-121 166t-48 271.5zM264 516q0 -197 82 -298t234 -101q158 0 244.5 93t86.5 306q0 199 -90 295t-241 96q-160 0 -238 -100t-78 -291z M1077 604h516q0 14 -6 63.5t-28.5 102.5t-68.5 95t-126 42q-86 0 -141.5 -35.5t-88 -85t-45 -100.5t-12.5 -82z" />
<glyph unicode="&#x178;" horiz-adv-x="1116" d="M25 1397h190l342 -678l344 678h191l-447 -889v-508h-174v508zM271 1665q0 47 31.5 79t78.5 32q49 0 83 -32t34 -79t-33.5 -79t-83.5 -32q-47 0 -78.5 32t-31.5 79zM621 1665q0 47 31.5 79t79.5 32q49 0 82.5 -32t33.5 -79t-33.5 -79t-82.5 -32q-47 0 -79 32t-32 79z" />
<glyph unicode="&#x2c6;" horiz-adv-x="1044" d="M205 1296l276 281h82l277 -281l-82 -67l-236 198l-235 -198z" />
<glyph unicode="&#x2dc;" horiz-adv-x="1134" d="M205 1325q53 72 112.5 95.5t114.5 23.5q43 0 80 -13.5t69.5 -29t60.5 -27.5t54 -12q47 0 75 25.5t48 54.5l111 -84q-55 -70 -107.5 -99.5t-103.5 -29.5t-91 12t-74 27.5t-61.5 29t-52.5 13.5q-41 0 -71.5 -20.5t-57.5 -55.5z" />
<glyph unicode="&#x2000;" horiz-adv-x="963" />
<glyph unicode="&#x2001;" horiz-adv-x="1927" />
<glyph unicode="&#x2002;" horiz-adv-x="963" />
<glyph unicode="&#x2003;" horiz-adv-x="1927" />
<glyph unicode="&#x2004;" horiz-adv-x="642" />
<glyph unicode="&#x2005;" horiz-adv-x="481" />
<glyph unicode="&#x2006;" horiz-adv-x="321" />
<glyph unicode="&#x2007;" horiz-adv-x="321" />
<glyph unicode="&#x2008;" horiz-adv-x="240" />
<glyph unicode="&#x2009;" horiz-adv-x="385" />
<glyph unicode="&#x200a;" horiz-adv-x="107" />
<glyph unicode="&#x2010;" horiz-adv-x="800" d="M127 451v151h547v-151h-547z" />
<glyph unicode="&#x2011;" horiz-adv-x="800" d="M127 451v151h547v-151h-547z" />
<glyph unicode="&#x2012;" horiz-adv-x="800" d="M127 451v151h547v-151h-547z" />
<glyph unicode="&#x2013;" horiz-adv-x="1159" d="M129 438v164h901v-164h-901z" />
<glyph unicode="&#x2014;" horiz-adv-x="1630" d="M129 438v164h1372v-164h-1372z" />
<glyph unicode="&#x2018;" horiz-adv-x="411" d="M119 1061v158q0 49 18.5 111.5t40.5 117.5q25 66 60 131l127 -23q-23 -59 -39 -114q-16 -47 -27.5 -101.5t-11.5 -97.5v-164z" />
<glyph unicode="&#x2019;" horiz-adv-x="417" d="M94 1081q20 57 39 113q14 47 26.5 102.5t12.5 98.5v164l168 18v-158q0 -49 -18.5 -111.5t-40.5 -117.5q-27 -66 -60 -131z" />
<glyph unicode="&#x201a;" horiz-adv-x="423" d="M49 -229q20 57 39 112q14 47 26.5 102.5t12.5 98.5v164l168 18v-157q0 -49 -18.5 -112t-40.5 -118q-27 -66 -60 -131z" />
<glyph unicode="&#x201c;" horiz-adv-x="714" d="M119 1044v158q0 49 18.5 111.5t40.5 118.5q25 66 60 131l127 -23q-23 -59 -39 -115q-16 -47 -27.5 -101t-11.5 -97v-164zM418 1044v158q0 49 18.5 111.5t40.5 118.5q25 66 60 131l127 -23q-23 -59 -39 -115q-16 -47 -27.5 -101t-11.5 -97v-164z" />
<glyph unicode="&#x201d;" horiz-adv-x="727" d="M90 1075q20 57 39 113q14 47 26.5 102.5t12.5 98.5v163l168 19v-158q0 -49 -18.5 -111.5t-41.5 -117.5q-27 -66 -59 -131zM403 1075q20 57 39 113q14 47 26.5 102.5t12.5 98.5v163l168 19v-158q0 -49 -18.5 -111.5t-40.5 -117.5q-27 -66 -60 -131z" />
<glyph unicode="&#x201e;" horiz-adv-x="714" d="M49 -229q20 57 39 112q14 47 26.5 102.5t12.5 98.5v164l168 18v-157q0 -49 -18.5 -112t-40.5 -118q-27 -66 -60 -131zM340 -229q20 57 39 112q14 47 26.5 102.5t12.5 98.5v164l168 18v-157q0 -49 -18.5 -112t-41.5 -118q-27 -66 -59 -131z" />
<glyph unicode="&#x2022;" horiz-adv-x="698" d="M94 547q0 49 20.5 94t54.5 78t80 52.5t99 19.5q51 0 98.5 -19.5t82 -52.5t56 -78t21.5 -94q0 -53 -21.5 -101.5t-56 -84t-82 -56t-98.5 -20.5q-53 0 -99 20.5t-80 56t-54.5 84t-20.5 101.5z" />
<glyph unicode="&#x2026;" horiz-adv-x="1382" d="M104 111q0 47 32 78.5t79 31.5q49 0 83 -31.5t34 -78.5t-34 -79t-83 -32q-47 0 -79 32t-32 79zM578 111q0 47 31.5 78.5t78.5 31.5q49 0 83 -31.5t34 -78.5t-34 -79t-83 -32q-47 0 -78.5 32t-31.5 79zM1051 111q0 47 31.5 78.5t78.5 31.5q49 0 83 -31.5t34 -78.5t-34 -79 t-83 -32q-47 0 -78.5 32t-31.5 79z" />
<glyph unicode="&#x202f;" horiz-adv-x="385" />
<glyph unicode="&#x2039;" horiz-adv-x="669" d="M80 522l391 465l109 -92l-312 -373l312 -372l-109 -93z" />
<glyph unicode="&#x203a;" horiz-adv-x="669" d="M90 150l311 372l-311 373l109 92l391 -465l-391 -465z" />
<glyph unicode="&#x205f;" horiz-adv-x="481" />
<glyph unicode="&#x20ac;" horiz-adv-x="1206" d="M94 512v133h180v152h-180v133h195q43 258 170 371.5t311 113.5q109 0 324 -31l-27 -143q-186 29 -305 31q-152 0 -220.5 -116t-78.5 -226h446v-133h-452v-152h452v-133h-444q16 -162 63 -278.5t246 -114.5q94 0 313 41l25 -142q-238 -43 -375 -43q-199 -8 -306 133.5 t-142 403.5h-195z" />
<glyph unicode="&#x2122;" horiz-adv-x="1845" d="M92 1452v102h580v-102h-230v-737h-120v737h-230zM762 715l45 839h131l262 -690h2l264 690h131l43 -839h-104l-35 542q-2 23 -1 39.5t3 28.5q2 14 6 25h-2l-254 -635h-104l-256 635h-2q2 -10 4 -25q2 -12 3 -28.5t1 -39.5l-33 -542h-104z" />
<glyph unicode="&#xe000;" horiz-adv-x="1034" d="M0 0v1034h1034v-1034h-1034z" />
</font>
</defs>
</svg>
